<?xml version="1.0" encoding="UTF-8" standalone="no"?>
<svg width="341px" height="55px" viewBox="0 0 341 55" version="1.1" xmlns="http://www.w3.org/2000/svg" xmlns:xlink="http://www.w3.org/1999/xlink">
    <!-- Generator: Sketch 3.6.1 (26313) - http://www.bohemiancoding.com/sketch -->
    <title>abcdefghijklmnopqrst</title>
    <desc>Created with Sketch.</desc>
    <defs></defs>
    <g id="Page-1" stroke="none" stroke-width="1" fill="none" fill-rule="evenodd">
        <g id="Style-Guide-site" transform="translate(-670.000000, -1976.000000)" fill="#000000">
            <g id="Typography" transform="translate(93.000000, 1546.038835)">
                <path d="M583.58,448.544 L583.524,448.544 C583.150665,449.066669 582.772669,449.467999 582.39,449.748 C582.007331,450.028001 581.47067,450.168 580.78,450.168 C580.443998,450.168 580.098668,450.116667 579.744,450.014 C579.389332,449.911333 579.058002,449.724668 578.75,449.454 C578.441998,449.183332 578.190001,448.800669 577.994,448.306 C577.797999,447.811331 577.7,447.172004 577.7,446.388 C577.7,445.585329 577.765333,444.88067 577.896,444.274 C578.026667,443.66733 578.264665,443.163335 578.61,442.762 C578.955335,442.360665 579.41733,442.062001 579.996,441.866 C580.57467,441.669999 581.311996,441.572 582.208,441.572 C582.413334,441.572 582.618666,441.581333 582.824,441.6 C583.029334,441.618667 583.281332,441.637333 583.58,441.656 L583.58,440.172 C583.58,439.686664 583.477334,439.285335 583.272,438.968 C583.066666,438.650665 582.693336,438.492 582.152,438.492 C581.778665,438.492 581.438002,438.613332 581.13,438.856 C580.821998,439.098668 580.621334,439.453331 580.528,439.92 L577.756,439.92 C577.849334,438.631994 578.278663,437.605337 579.044,436.84 C579.417335,436.466665 579.865331,436.172668 580.388,435.958 C580.910669,435.743332 581.498663,435.636 582.152,435.636 C582.749336,435.636 583.309331,435.729332 583.832,435.916 C584.354669,436.102668 584.807331,436.382665 585.19,436.756 C585.572669,437.129335 585.875999,437.595997 586.1,438.156 C586.324001,438.716003 586.436,439.36933 586.436,440.116 L586.436,450 L583.58,450 L583.58,448.544 Z M583.58,443.896 C583.262665,443.84 583.001334,443.812 582.796,443.812 C582.179997,443.812 581.652669,443.956665 581.214,444.246 C580.775331,444.535335 580.556,445.062663 580.556,445.828 C580.556,446.369336 580.686665,446.807998 580.948,447.144 C581.209335,447.480002 581.573331,447.648 582.04,447.648 C582.525336,447.648 582.903332,447.489335 583.174,447.172 C583.444668,446.854665 583.58,446.40667 583.58,445.828 L583.58,443.896 Z M590.342452,430.064 L593.198452,430.064 L593.198452,437.092 L593.254452,437.092 C593.571786,436.625331 593.949783,436.266001 594.388452,436.014 C594.82712,435.761999 595.326449,435.636 595.886452,435.636 C596.577122,435.636 597.113783,435.757332 597.496452,436 C597.87912,436.242668 598.191784,436.550665 598.434452,436.924 C598.621119,437.222668 598.742451,437.614664 598.798452,438.1 C598.854452,438.585336 598.882452,439.341328 598.882452,440.368 L598.882452,445.772 C598.882452,446.556004 598.845119,447.181331 598.770452,447.648 C598.695785,448.114669 598.574452,448.506665 598.406452,448.824 C597.921116,449.720004 597.090457,450.168 595.914452,450.168 C595.205115,450.168 594.663787,450.028001 594.290452,449.748 C593.917116,449.467999 593.55312,449.122669 593.198452,448.712 L593.198452,450 L590.342452,450 L590.342452,430.064 Z M596.026452,440.172 C596.026452,439.723998 595.928453,439.332002 595.732452,438.996 C595.536451,438.659998 595.167788,438.492 594.626452,438.492 C594.215783,438.492 593.87512,438.636665 593.604452,438.926 C593.333784,439.215335 593.198452,439.583998 593.198452,440.032 L593.198452,445.548 C593.198452,446.070669 593.329117,446.495332 593.590452,446.822 C593.851786,447.148668 594.197116,447.312 594.626452,447.312 C595.111787,447.312 595.46645,447.134668 595.690452,446.78 C595.914453,446.425332 596.026452,445.95867 596.026452,445.38 L596.026452,440.172 Z M606.064903,445.912 C606.064903,446.360002 606.190902,446.705332 606.442903,446.948 C606.694904,447.190668 607.035568,447.312 607.464903,447.312 C608.006239,447.312 608.365569,447.153335 608.542903,446.836 C608.720237,446.518665 608.82757,446.201335 608.864903,445.884 L611.720903,445.884 C611.720903,446.481336 611.622904,447.041331 611.426903,447.564 C611.230902,448.086669 610.946238,448.534665 610.572903,448.908 C610.199568,449.300002 609.751572,449.607999 609.228903,449.832 C608.706234,450.056001 608.11824,450.168 607.464903,450.168 C606.587565,450.168 605.831573,449.981335 605.196903,449.608 C604.562233,449.234665 604.076905,448.740003 603.740903,448.124 C603.535569,447.750665 603.39557,447.321336 603.320903,446.836 C603.246236,446.350664 603.208903,445.81867 603.208903,445.24 L603.208903,440.564 C603.208903,439.98533 603.246236,439.453336 603.320903,438.968 C603.39557,438.482664 603.535569,438.053335 603.740903,437.68 C604.076905,437.063997 604.562233,436.569335 605.196903,436.196 C605.831573,435.822665 606.587565,435.636 607.464903,435.636 C608.11824,435.636 608.7109,435.747999 609.242903,435.972 C609.774906,436.196001 610.222901,436.508665 610.586903,436.91 C610.950905,437.311335 611.230902,437.791997 611.426903,438.352 C611.622904,438.912003 611.720903,439.518663 611.720903,440.172 L608.864903,440.172 C608.864903,439.59333 608.738904,439.168668 608.486903,438.898 C608.234902,438.627332 607.894239,438.492 607.464903,438.492 C607.035568,438.492 606.694904,438.627332 606.442903,438.898 C606.190902,439.168668 606.064903,439.574664 606.064903,440.116 L606.064903,445.912 Z M618.063355,445.38 C618.063355,445.95867 618.175354,446.425332 618.399355,446.78 C618.623356,447.134668 618.978019,447.312 619.463355,447.312 C619.89269,447.312 620.23802,447.148668 620.499355,446.822 C620.760689,446.495332 620.891355,446.070669 620.891355,445.548 L620.891355,440.032 C620.891355,439.583998 620.756023,439.215335 620.485355,438.926 C620.214687,438.636665 619.874023,438.492 619.463355,438.492 C618.922019,438.492 618.553356,438.659998 618.357355,438.996 C618.161354,439.332002 618.063355,439.723998 618.063355,440.172 L618.063355,445.38 Z M620.891355,448.712 C620.704687,448.917334 620.527356,449.108666 620.359355,449.286 C620.191354,449.463334 620.004689,449.617333 619.799355,449.748 C619.59402,449.878667 619.360689,449.981333 619.099355,450.056 C618.83802,450.130667 618.530023,450.168 618.175355,450.168 C616.999349,450.168 616.16869,449.720004 615.683355,448.824 C615.515354,448.506665 615.394022,448.114669 615.319355,447.648 C615.244688,447.181331 615.207355,446.556004 615.207355,445.772 L615.207355,440.368 C615.207355,439.341328 615.235354,438.585336 615.291355,438.1 C615.347355,437.614664 615.468687,437.222668 615.655355,436.924 C615.898023,436.550665 616.210686,436.242668 616.593355,436 C616.976023,435.757332 617.512685,435.636 618.203355,435.636 C618.763357,435.636 619.262686,435.761999 619.701355,436.014 C620.140024,436.266001 620.51802,436.625331 620.835355,437.092 L620.891355,437.092 L620.891355,430.064 L623.747355,430.064 L623.747355,450 L620.891355,450 L620.891355,448.712 Z M630.509806,443.98 L630.509806,445.912 C630.509806,446.360002 630.635805,446.705332 630.887806,446.948 C631.139807,447.190668 631.480471,447.312 631.909806,447.312 C632.451142,447.312 632.810472,447.153335 632.987806,446.836 C633.16514,446.518665 633.272473,446.201335 633.309806,445.884 L636.165806,445.884 C636.165806,446.481336 636.067807,447.041331 635.871806,447.564 C635.675805,448.086669 635.391141,448.534665 635.017806,448.908 C634.644471,449.300002 634.196476,449.607999 633.673806,449.832 C633.151137,450.056001 632.563143,450.168 631.909806,450.168 C631.032469,450.168 630.276476,449.981335 629.641806,449.608 C629.007136,449.234665 628.521808,448.740003 628.185806,448.124 C627.980472,447.750665 627.840473,447.321336 627.765806,446.836 C627.691139,446.350664 627.653806,445.81867 627.653806,445.24 L627.653806,440.564 C627.653806,439.98533 627.691139,439.453336 627.765806,438.968 C627.840473,438.482664 627.980472,438.053335 628.185806,437.68 C628.521808,437.063997 629.007136,436.569335 629.641806,436.196 C630.276476,435.822665 631.032469,435.636 631.909806,435.636 C632.563143,435.636 633.155804,435.747999 633.687806,435.972 C634.219809,436.196001 634.667804,436.508665 635.031806,436.91 C635.395808,437.311335 635.675805,437.782664 635.871806,438.324 C636.067807,438.865336 636.165806,439.443997 636.165806,440.06 L636.165806,443.98 L630.509806,443.98 Z M630.509806,441.74 L633.309806,441.74 L633.309806,440.116 C633.309806,439.574664 633.183807,439.168668 632.931806,438.898 C632.679805,438.627332 632.339142,438.492 631.909806,438.492 C631.480471,438.492 631.139807,438.627332 630.887806,438.898 C630.635805,439.168668 630.509806,439.574664 630.509806,440.116 L630.509806,441.74 Z M640.436258,438.044 L639.036258,438.044 L639.036258,435.804 L640.436258,435.804 L640.436258,433.872 C640.436258,433.18133 640.538923,432.598002 640.744258,432.122 C640.949592,431.645998 641.224923,431.254002 641.570258,430.946 C641.915593,430.637998 642.307589,430.414001 642.746258,430.274 C643.184927,430.133999 643.637589,430.064 644.104258,430.064 L645.420258,430.064 L645.420258,432.752 L644.132258,432.752 C643.572255,432.752 643.292258,433.078663 643.292258,433.732 L643.292258,435.804 L645.420258,435.804 L645.420258,438.044 L643.292258,438.044 L643.292258,450 L640.436258,450 L640.436258,438.044 Z M650.950709,451.652 C650.969376,451.988002 651.104708,452.305332 651.356709,452.604 C651.608711,452.902668 651.977374,453.052 652.462709,453.052 C652.929378,453.052 653.265375,452.907335 653.470709,452.618 C653.676044,452.328665 653.778709,451.960002 653.778709,451.512 L653.778709,448.712 L653.722709,448.712 C653.405374,449.178669 653.027378,449.537999 652.588709,449.79 C652.15004,450.042001 651.641379,450.168 651.062709,450.168 C649.886703,450.168 649.056045,449.720004 648.570709,448.824 C648.402709,448.506665 648.281376,448.114669 648.206709,447.648 C648.132042,447.181331 648.094709,446.556004 648.094709,445.772 L648.094709,440.368 C648.094709,439.341328 648.122709,438.585336 648.178709,438.1 C648.23471,437.614664 648.356042,437.222668 648.542709,436.924 C648.785377,436.550665 649.098041,436.242668 649.480709,436 C649.863378,435.757332 650.400039,435.636 651.090709,435.636 C651.445378,435.636 651.748708,435.673333 652.000709,435.748 C652.252711,435.822667 652.481375,435.925333 652.686709,436.056 C652.892044,436.186667 653.078709,436.340666 653.246709,436.518 C653.41471,436.695334 653.592042,436.886666 653.778709,437.092 L653.778709,435.804 L656.634709,435.804 L656.634709,451.736 C656.634709,452.221336 656.555377,452.711331 656.396709,453.206 C656.238042,453.700669 655.981378,454.148665 655.626709,454.55 C655.272041,454.951335 654.824045,455.277999 654.282709,455.53 C653.741373,455.782001 653.09738,455.908 652.350709,455.908 C651.921374,455.908 651.473378,455.838001 651.006709,455.698 C650.54004,455.557999 650.106045,455.324668 649.704709,454.998 C649.303374,454.671332 648.958044,454.237336 648.668709,453.696 C648.379375,453.154664 648.188043,452.473337 648.094709,451.652 L650.950709,451.652 Z M650.950709,445.632 C650.950709,446.080002 651.048708,446.471998 651.244709,446.808 C651.44071,447.144002 651.809373,447.312 652.350709,447.312 C652.761378,447.312 653.102041,447.167335 653.372709,446.878 C653.643377,446.588665 653.778709,446.220002 653.778709,445.772 L653.778709,440.256 C653.778709,439.733331 653.648044,439.308668 653.386709,438.982 C653.125375,438.655332 652.780045,438.492 652.350709,438.492 C651.865374,438.492 651.51071,438.669332 651.286709,439.024 C651.062708,439.378668 650.950709,439.84533 650.950709,440.424 L650.950709,445.632 Z M660.793161,430.064 L663.649161,430.064 L663.649161,437.176 L663.705161,437.176 C664.003829,436.727998 664.363159,436.359335 664.783161,436.07 C665.203163,435.780665 665.739824,435.636 666.393161,435.636 C666.747829,435.636 667.102492,435.696666 667.457161,435.818 C667.811829,435.939334 668.12916,436.139999 668.409161,436.42 C668.689162,436.700001 668.91316,437.059331 669.081161,437.498 C669.249162,437.936669 669.333161,438.47333 669.333161,439.108 L669.333161,450 L666.477161,450 L666.477161,440.172 C666.477161,439.649331 666.355829,439.238668 666.113161,438.94 C665.870493,438.641332 665.525163,438.492 665.077161,438.492 C664.535825,438.492 664.162495,438.659998 663.957161,438.996 C663.751827,439.332002 663.649161,439.81733 663.649161,440.452 L663.649161,450 L660.793161,450 L660.793161,430.064 Z M673.491612,435.804 L676.347612,435.804 L676.347612,450 L673.491612,450 L673.491612,435.804 Z M673.491612,430.064 L676.347612,430.064 L676.347612,432.92 L673.491612,432.92 L673.491612,430.064 Z M680.506064,435.804 L683.362064,435.804 L683.362064,451.512 C683.362064,452.912007 682.923402,453.966663 682.046064,454.676 C681.168726,455.385337 680.058071,455.74 678.714064,455.74 L678.714064,453.052 C679.050066,453.052 679.33473,453.014667 679.568064,452.94 C679.801399,452.865333 679.988063,452.730001 680.128064,452.534 C680.268065,452.337999 680.366064,452.072002 680.422064,451.736 C680.478064,451.399998 680.506064,450.970669 680.506064,450.448 L680.506064,435.804 Z M680.506064,430.064 L683.362064,430.064 L683.362064,432.92 L680.506064,432.92 L680.506064,430.064 Z M687.520516,430.064 L690.376516,430.064 L690.376516,441.992 L690.432516,441.992 L693.876516,435.804 L696.732516,435.804 L693.344516,441.572 L697.432516,450 L694.324516,450 L691.748516,443.868 L690.376516,446.024 L690.376516,450 L687.520516,450 L687.520516,430.064 Z M700.050967,430.064 L702.906967,430.064 L702.906967,445.996 C702.906967,446.537336 703.004966,446.905999 703.200967,447.102 C703.396968,447.298001 703.765631,447.424 704.306967,447.48 L704.306967,450.168 C703.653631,450.168 703.06097,450.116667 702.528967,450.014 C701.996964,449.911333 701.548969,449.715335 701.184967,449.426 C700.820965,449.136665 700.540968,448.730669 700.344967,448.208 C700.148966,447.685331 700.050967,447.013337 700.050967,446.192 L700.050967,430.064 Z M707.233419,435.804 L710.089419,435.804 L710.089419,437.176 L710.145419,437.176 C710.444087,436.727998 710.803417,436.359335 711.223419,436.07 C711.643421,435.780665 712.180082,435.636 712.833419,435.636 C713.449422,435.636 713.96275,435.785332 714.373419,436.084 C714.784087,436.382668 715.120084,436.709332 715.381419,437.064 C715.736087,436.671998 716.128083,436.336001 716.557419,436.056 C716.986754,435.775999 717.584082,435.636 718.349419,435.636 C718.704087,435.636 719.068084,435.696666 719.441419,435.818 C719.814754,435.939334 720.150751,436.139999 720.449419,436.42 C720.748087,436.700001 720.990751,437.059331 721.177419,437.498 C721.364086,437.936669 721.457419,438.47333 721.457419,439.108 L721.457419,450 L718.601419,450 L718.601419,440.172 C718.601419,439.649331 718.480087,439.238668 718.237419,438.94 C717.994751,438.641332 717.649421,438.492 717.201419,438.492 C716.660083,438.492 716.286753,438.659998 716.081419,438.996 C715.876084,439.332002 715.773419,439.81733 715.773419,440.452 L715.773419,450 L712.917419,450 L712.917419,440.172 C712.917419,439.649331 712.796087,439.238668 712.553419,438.94 C712.310751,438.641332 711.965421,438.492 711.517419,438.492 C710.976083,438.492 710.602753,438.659998 710.397419,438.996 C710.192084,439.332002 710.089419,439.81733 710.089419,440.452 L710.089419,450 L707.233419,450 L707.233419,435.804 Z M725.61587,435.804 L728.47187,435.804 L728.47187,437.176 L728.52787,437.176 C728.826538,436.727998 729.185868,436.359335 729.60587,436.07 C730.025872,435.780665 730.562534,435.636 731.21587,435.636 C731.570539,435.636 731.925202,435.696666 732.27987,435.818 C732.634539,435.939334 732.951869,436.139999 733.23187,436.42 C733.511872,436.700001 733.735869,437.059331 733.90387,437.498 C734.071871,437.936669 734.15587,438.47333 734.15587,439.108 L734.15587,450 L731.29987,450 L731.29987,440.172 C731.29987,439.649331 731.178538,439.238668 730.93587,438.94 C730.693202,438.641332 730.347873,438.492 729.89987,438.492 C729.358534,438.492 728.985205,438.659998 728.77987,438.996 C728.574536,439.332002 728.47187,439.81733 728.47187,440.452 L728.47187,450 L725.61587,450 L725.61587,435.804 Z M738.062322,440.564 C738.062322,439.98533 738.099655,439.453336 738.174322,438.968 C738.248989,438.482664 738.388987,438.053335 738.594322,437.68 C738.930324,437.063997 739.415652,436.569335 740.050322,436.196 C740.684992,435.822665 741.440984,435.636 742.318322,435.636 C743.19566,435.636 743.951652,435.822665 744.586322,436.196 C745.220992,436.569335 745.70632,437.063997 746.042322,437.68 C746.247656,438.053335 746.387655,438.482664 746.462322,438.968 C746.536989,439.453336 746.574322,439.98533 746.574322,440.564 L746.574322,445.24 C746.574322,445.81867 746.536989,446.350664 746.462322,446.836 C746.387655,447.321336 746.247656,447.750665 746.042322,448.124 C745.70632,448.740003 745.220992,449.234665 744.586322,449.608 C743.951652,449.981335 743.19566,450.168 742.318322,450.168 C741.440984,450.168 740.684992,449.981335 740.050322,449.608 C739.415652,449.234665 738.930324,448.740003 738.594322,448.124 C738.388987,447.750665 738.248989,447.321336 738.174322,446.836 C738.099655,446.350664 738.062322,445.81867 738.062322,445.24 L738.062322,440.564 Z M740.918322,445.688 C740.918322,446.229336 741.044321,446.635332 741.296322,446.906 C741.548323,447.176668 741.888986,447.312 742.318322,447.312 C742.747657,447.312 743.088321,447.176668 743.340322,446.906 C743.592323,446.635332 743.718322,446.229336 743.718322,445.688 L743.718322,440.116 C743.718322,439.574664 743.592323,439.168668 743.340322,438.898 C743.088321,438.627332 742.747657,438.492 742.318322,438.492 C741.888986,438.492 741.548323,438.627332 741.296322,438.898 C741.044321,439.168668 740.918322,439.574664 740.918322,440.116 L740.918322,445.688 Z M750.480773,435.804 L753.336773,435.804 L753.336773,437.092 C753.691442,436.681331 754.055438,436.336001 754.428773,436.056 C754.802109,435.775999 755.343437,435.636 756.052773,435.636 C757.228779,435.636 758.059438,436.083996 758.544773,436.98 C758.712774,437.297335 758.834106,437.689331 758.908773,438.156 C758.98344,438.622669 759.020773,439.247996 759.020773,440.032 L759.020773,445.436 C759.020773,446.462672 758.992774,447.218664 758.936773,447.704 C758.880773,448.189336 758.759441,448.581332 758.572773,448.88 C758.330106,449.253335 758.017442,449.561332 757.634773,449.804 C757.252105,450.046668 756.715444,450.168 756.024773,450.168 C755.464771,450.168 754.965442,450.042001 754.526773,449.79 C754.088105,449.537999 753.710108,449.178669 753.392773,448.712 L753.336773,448.712 L753.336773,455.74 L750.480773,455.74 L750.480773,435.804 Z M756.164773,440.424 C756.164773,439.84533 756.052775,439.378668 755.828773,439.024 C755.604772,438.669332 755.250109,438.492 754.764773,438.492 C754.335438,438.492 753.990108,438.655332 753.728773,438.982 C753.467439,439.308668 753.336773,439.733331 753.336773,440.256 L753.336773,445.772 C753.336773,446.220002 753.472105,446.588665 753.742773,446.878 C754.013441,447.167335 754.354105,447.312 754.764773,447.312 C755.306109,447.312 755.674772,447.144002 755.870773,446.808 C756.066774,446.471998 756.164773,446.080002 756.164773,445.632 L756.164773,440.424 Z M768.863225,448.712 L768.807225,448.712 C768.48989,449.178669 768.111894,449.537999 767.673225,449.79 C767.234556,450.042001 766.735228,450.168 766.175225,450.168 C765.484555,450.168 764.947894,450.046668 764.565225,449.804 C764.182556,449.561332 763.869893,449.253335 763.627225,448.88 C763.440557,448.581332 763.319225,448.189336 763.263225,447.704 C763.207225,447.218664 763.179225,446.462672 763.179225,445.436 L763.179225,440.032 C763.179225,439.247996 763.216558,438.622669 763.291225,438.156 C763.365892,437.689331 763.487224,437.297335 763.655225,436.98 C764.140561,436.083996 764.971219,435.636 766.147225,435.636 C766.501893,435.636 766.80989,435.673333 767.071225,435.748 C767.33256,435.822667 767.565891,435.925333 767.771225,436.056 C767.976559,436.186667 768.163224,436.340666 768.331225,436.518 C768.499226,436.695334 768.676557,436.886666 768.863225,437.092 L768.863225,435.804 L771.719225,435.804 L771.719225,455.74 L768.863225,455.74 L768.863225,448.712 Z M766.035225,445.632 C766.035225,446.080002 766.133224,446.471998 766.329225,446.808 C766.525226,447.144002 766.893889,447.312 767.435225,447.312 C767.845894,447.312 768.186557,447.167335 768.457225,446.878 C768.727893,446.588665 768.863225,446.220002 768.863225,445.772 L768.863225,440.256 C768.863225,439.733331 768.73256,439.308668 768.471225,438.982 C768.20989,438.655332 767.86456,438.492 767.435225,438.492 C766.949889,438.492 766.595226,438.669332 766.371225,439.024 C766.147224,439.378668 766.035225,439.84533 766.035225,440.424 L766.035225,445.632 Z M775.877677,435.804 L778.733677,435.804 L778.733677,437.316 C779.312346,436.793331 779.881674,436.382668 780.441677,436.084 C781.001679,435.785332 781.692339,435.636 782.513677,435.636 L782.513677,438.66 C782.233675,438.547999 781.944345,438.492 781.645677,438.492 C781.347008,438.492 781.025012,438.543333 780.679677,438.646 C780.334341,438.748667 780.017011,438.921332 779.727677,439.164 C779.438342,439.406668 779.200344,439.723998 779.013677,440.116 C778.827009,440.508002 778.733677,440.99333 778.733677,441.572 L778.733677,450 L775.877677,450 L775.877677,435.804 Z M790.648128,439.78 C790.629461,439.294664 790.475463,438.930668 790.186128,438.688 C789.896793,438.445332 789.565463,438.324 789.192128,438.324 C788.744126,438.324 788.398796,438.468665 788.156128,438.758 C787.91346,439.047335 787.792128,439.378665 787.792128,439.752 C787.792128,440.013335 787.857461,440.269999 787.988128,440.522 C788.118795,440.774001 788.454792,441.002666 788.996128,441.208 L790.676128,441.88 C791.740133,442.290669 792.472793,442.850663 792.874128,443.56 C793.275463,444.269337 793.476128,445.043996 793.476128,445.884 C793.476128,446.481336 793.368796,447.036664 793.154128,447.55 C792.93946,448.063336 792.645463,448.515998 792.272128,448.908 C791.898793,449.300002 791.450797,449.607999 790.928128,449.832 C790.405459,450.056001 789.836131,450.168 789.220128,450.168 C788.660125,450.168 788.128131,450.074668 787.624128,449.888 C787.120126,449.701332 786.676797,449.430668 786.294128,449.076 C785.911459,448.721332 785.598796,448.278003 785.356128,447.746 C785.11346,447.213997 784.982795,446.593337 784.964128,445.884 L787.652128,445.884 C787.708128,446.276002 787.84346,446.639998 788.058128,446.976 C788.272796,447.312002 788.650792,447.48 789.192128,447.48 C789.602797,447.48 789.97146,447.344668 790.298128,447.074 C790.624796,446.803332 790.788128,446.425336 790.788128,445.94 C790.788128,445.547998 790.685462,445.212001 790.480128,444.932 C790.274794,444.651999 789.901464,444.409334 789.360128,444.204 L787.988128,443.7 C787.092124,443.363998 786.387464,442.86467 785.874128,442.202 C785.360792,441.53933 785.104128,440.732005 785.104128,439.78 C785.104128,439.182664 785.216127,438.627336 785.440128,438.114 C785.664129,437.600664 785.967459,437.162002 786.350128,436.798 C786.732797,436.433998 787.176126,436.149334 787.680128,435.944 C788.184131,435.738666 788.725459,435.636 789.304128,435.636 C789.882798,435.636 790.419459,435.743332 790.914128,435.958 C791.408797,436.172668 791.83346,436.461998 792.188128,436.826 C792.542797,437.190002 792.822794,437.628664 793.028128,438.142 C793.233462,438.655336 793.336128,439.20133 793.336128,439.78 L790.648128,439.78 Z M797.13058,431.492 L799.98658,431.492 L799.98658,435.804 L801.75058,435.804 L801.75058,438.044 L799.98658,438.044 L799.98658,445.912 C799.98658,446.248002 800.019246,446.509332 800.08458,446.696 C800.149913,446.882668 800.252579,447.022666 800.39258,447.116 C800.53258,447.209334 800.714579,447.265333 800.93858,447.284 C801.162581,447.302667 801.433245,447.312 801.75058,447.312 L801.75058,450 L800.57458,450 C799.921243,450 799.375248,449.897334 798.93658,449.692 C798.497911,449.486666 798.147914,449.225335 797.88658,448.908 C797.625245,448.590665 797.433914,448.231335 797.31258,447.83 C797.191246,447.428665 797.13058,447.041335 797.13058,446.668 L797.13058,438.044 L795.70258,438.044 L795.70258,435.804 L797.13058,435.804 L797.13058,431.492 Z M813.189031,450 L810.333031,450 L810.333031,448.628 L810.277031,448.628 C809.978363,449.076002 809.619033,449.444665 809.199031,449.734 C808.779029,450.023335 808.242368,450.168 807.589031,450.168 C807.234363,450.168 806.8797,450.107334 806.525031,449.986 C806.170363,449.864666 805.853033,449.664001 805.573031,449.384 C805.29303,449.103999 805.069032,448.744669 804.901031,448.306 C804.73303,447.867331 804.649031,447.33067 804.649031,446.696 L804.649031,435.804 L807.505031,435.804 L807.505031,445.632 C807.505031,446.154669 807.626363,446.565332 807.869031,446.864 C808.111699,447.162668 808.457029,447.312 808.905031,447.312 C809.446367,447.312 809.819697,447.144002 810.025031,446.808 C810.230366,446.471998 810.333031,445.98667 810.333031,445.352 L810.333031,435.804 L813.189031,435.804 L813.189031,450 Z M822.359483,450 L819.839483,450 L816.143483,435.804 L819.167483,435.804 L821.071483,444.876 L821.127483,444.876 L823.031483,435.804 L826.055483,435.804 L822.359483,450 Z M839.453934,450 L836.933934,450 L835.365934,441.572 L835.309934,441.572 L833.741934,450 L831.221934,450 L827.861934,435.804 L830.885934,435.804 L832.621934,444.624 L832.677934,444.624 L834.273934,435.804 L836.513934,435.804 L838.025934,444.624 L838.081934,444.624 L839.789934,435.804 L842.813934,435.804 L839.453934,450 Z M847.840386,442.748 L844.508386,435.804 L847.532386,435.804 L849.296386,439.836 L851.060386,435.804 L854.084386,435.804 L850.696386,442.748 L854.252386,450 L851.228386,450 L849.296386,445.66 L847.364386,450 L844.340386,450 L847.840386,442.748 Z M858.746837,435.804 L860.706837,444.652 L860.762837,444.652 L862.694837,435.804 L865.634837,435.804 L861.546837,452.464 C861.397503,453.09867 861.187505,453.625998 860.916837,454.046 C860.646169,454.466002 860.333506,454.801999 859.978837,455.054 C859.624169,455.306001 859.246173,455.483333 858.844837,455.586 C858.443502,455.688667 858.028173,455.74 857.598837,455.74 L856.814837,455.74 L856.814837,453.052 L857.458837,453.052 C857.738839,453.052 857.981503,453.014667 858.186837,452.94 C858.392172,452.865333 858.57417,452.702001 858.732837,452.45 C858.891505,452.197999 859.03617,451.824669 859.166837,451.33 C859.297505,450.835331 859.446837,450.177337 859.614837,449.356 L855.722837,435.804 L858.746837,435.804 Z M867.889289,447.732 L872.509289,438.324 L868.253289,438.324 L868.253289,435.804 L875.757289,435.804 L875.757289,438.072 L871.137289,447.312 L875.757289,447.312 L875.757289,450 L867.889289,450 L867.889289,447.732 Z M582.712,469.804 L582.656,469.804 L581.256,477.028 L584.112,477.028 L582.712,469.804 Z M581.508,464.064 L583.888,464.064 L588.34,484 L585.484,484 L584.644,479.716 L580.752,479.716 L579.912,484 L577.056,484 L581.508,464.064 Z M591.546452,464.064 L595.718452,464.064 C596.633123,464.064 597.412448,464.203999 598.056452,464.484 C598.700455,464.764001 599.227783,465.137331 599.638452,465.604 C600.04912,466.070669 600.343117,466.60733 600.520452,467.214 C600.697786,467.82067 600.786452,468.450663 600.786452,469.104 L600.786452,469.832 C600.786452,470.373336 600.744452,470.830665 600.660452,471.204 C600.576451,471.577335 600.450452,471.903999 600.282452,472.184 C600.114451,472.464001 599.909119,472.711332 599.666452,472.926 C599.423784,473.140668 599.143786,473.341332 598.826452,473.528 C599.498455,473.845335 599.993117,474.316664 600.310452,474.942 C600.627786,475.567336 600.786452,476.402661 600.786452,477.448 L600.786452,478.568 C600.786452,480.322675 600.361789,481.666662 599.512452,482.6 C598.663114,483.533338 597.305128,484 595.438452,484 L591.546452,484 L591.546452,464.064 Z M594.402452,481.144 L595.634452,481.144 C596.213121,481.144 596.665783,481.060001 596.992452,480.892 C597.31912,480.723999 597.566451,480.490668 597.734452,480.192 C597.902452,479.893332 598.005118,479.538669 598.042452,479.128 C598.079785,478.717331 598.098452,478.269336 598.098452,477.784 C598.098452,477.279997 598.070452,476.841335 598.014452,476.468 C597.958451,476.094665 597.841786,475.782001 597.664452,475.53 C597.487117,475.277999 597.239786,475.086667 596.922452,474.956 C596.605117,474.825333 596.185121,474.76 595.662452,474.76 L594.402452,474.76 L594.402452,481.144 Z M594.402452,472.24 L595.690452,472.24 C596.642456,472.24 597.281783,472.002002 597.608452,471.526 C597.93512,471.049998 598.098452,470.354671 598.098452,469.44 C598.098452,468.543996 597.916453,467.872002 597.552452,467.424 C597.18845,466.975998 596.530456,466.752 595.578452,466.752 L594.402452,466.752 L594.402452,472.24 Z M614.352903,479.548 C614.352903,480.164003 614.236238,480.751997 614.002903,481.312 C613.769569,481.872003 613.447572,482.361998 613.036903,482.782 C612.626234,483.202002 612.145573,483.537999 611.594903,483.79 C611.044234,484.042001 610.451573,484.168 609.816903,484.168 C609.275567,484.168 608.724906,484.093334 608.164903,483.944 C607.6049,483.794666 607.100905,483.538002 606.652903,483.174 C606.204901,482.809998 605.836238,482.329336 605.546903,481.732 C605.257568,481.134664 605.112903,480.378671 605.112903,479.464 L605.112903,468.488 C605.112903,467.834663 605.224902,467.228003 605.448903,466.668 C605.672904,466.107997 605.990234,465.622669 606.400903,465.212 C606.811572,464.801331 607.301567,464.479334 607.870903,464.246 C608.440239,464.012665 609.070233,463.896 609.760903,463.896 C610.41424,463.896 611.0209,464.012665 611.580903,464.246 C612.140906,464.479334 612.626234,464.805998 613.036903,465.226 C613.447572,465.646002 613.769569,466.149997 614.002903,466.738 C614.236238,467.326003 614.352903,467.96533 614.352903,468.656 L614.352903,469.776 L611.496903,469.776 L611.496903,468.824 C611.496903,468.263997 611.338238,467.778669 611.020903,467.368 C610.703568,466.957331 610.274239,466.752 609.732903,466.752 C609.023566,466.752 608.552238,466.971331 608.318903,467.41 C608.085569,467.848669 607.968903,468.403997 607.968903,469.076 L607.968903,479.268 C607.968903,479.84667 608.094902,480.331998 608.346903,480.724 C608.598904,481.116002 609.051567,481.312 609.704903,481.312 C609.891571,481.312 610.092235,481.279334 610.306903,481.214 C610.521571,481.148666 610.717569,481.041334 610.894903,480.892 C611.072237,480.742666 611.216903,480.537335 611.328903,480.276 C611.440904,480.014665 611.496903,479.688002 611.496903,479.296 L611.496903,478.316 L614.352903,478.316 L614.352903,479.548 Z M618.483355,464.064 L622.711355,464.064 C624.335363,464.064 625.576684,464.516662 626.435355,465.422 C627.294026,466.327338 627.723355,467.591992 627.723355,469.216 L627.723355,478.54 C627.723355,480.406676 627.270693,481.783329 626.365355,482.67 C625.460017,483.556671 624.15803,484 622.459355,484 L618.483355,484 L618.483355,464.064 Z M621.339355,481.312 L622.655355,481.312 C623.458025,481.312 624.027353,481.111335 624.363355,480.71 C624.699356,480.308665 624.867355,479.678671 624.867355,478.82 L624.867355,469.216 C624.867355,468.431996 624.70869,467.825335 624.391355,467.396 C624.07402,466.966665 623.495359,466.752 622.655355,466.752 L621.339355,466.752 L621.339355,481.312 Z M632.217806,464.064 L640.729806,464.064 L640.729806,466.752 L635.073806,466.752 L635.073806,472.604 L640.001806,472.604 L640.001806,475.292 L635.073806,475.292 L635.073806,481.144 L640.729806,481.144 L640.729806,484 L632.217806,484 L632.217806,464.064 Z M644.384258,464.064 L652.896258,464.064 L652.896258,466.752 L647.240258,466.752 L647.240258,472.8 L652.168258,472.8 L652.168258,475.488 L647.240258,475.488 L647.240258,484 L644.384258,484 L644.384258,464.064 Z M656.382709,468.768 C656.382709,467.965329 656.522708,467.256003 656.802709,466.64 C657.082711,466.023997 657.451374,465.515335 657.908709,465.114 C658.366045,464.712665 658.879373,464.409334 659.448709,464.204 C660.018046,463.998666 660.59204,463.896 661.170709,463.896 C661.749379,463.896 662.323373,463.998666 662.892709,464.204 C663.462046,464.409334 663.975374,464.712665 664.432709,465.114 C664.890045,465.515335 665.258708,466.023997 665.538709,466.64 C665.818711,467.256003 665.958709,467.965329 665.958709,468.768 L665.958709,469.776 L663.102709,469.776 L663.102709,468.768 C663.102709,468.07733 662.911378,467.568668 662.528709,467.242 C662.146041,466.915332 661.693379,466.752 661.170709,466.752 C660.64804,466.752 660.195378,466.915332 659.812709,467.242 C659.430041,467.568668 659.238709,468.07733 659.238709,468.768 L659.238709,479.296 C659.238709,479.98667 659.430041,480.495332 659.812709,480.822 C660.195378,481.148668 660.64804,481.312 661.170709,481.312 C661.693379,481.312 662.146041,481.148668 662.528709,480.822 C662.911378,480.495332 663.102709,479.98667 663.102709,479.296 L663.102709,475.544 L660.834709,475.544 L660.834709,473.024 L665.958709,473.024 L665.958709,479.296 C665.958709,480.117337 665.818711,480.83133 665.538709,481.438 C665.258708,482.04467 664.890045,482.548665 664.432709,482.95 C663.975374,483.351335 663.462046,483.654666 662.892709,483.86 C662.323373,484.065334 661.749379,484.168 661.170709,484.168 C660.59204,484.168 660.018046,484.065334 659.448709,483.86 C658.879373,483.654666 658.366045,483.351335 657.908709,482.95 C657.451374,482.548665 657.082711,482.04467 656.802709,481.438 C656.522708,480.83133 656.382709,480.117337 656.382709,479.296 L656.382709,468.768 Z M670.285161,464.064 L673.141161,464.064 L673.141161,472.604 L676.669161,472.604 L676.669161,464.064 L679.525161,464.064 L679.525161,484 L676.669161,484 L676.669161,475.124 L673.141161,475.124 L673.141161,484 L670.285161,484 L670.285161,464.064 Z M684.103612,464.064 L686.959612,464.064 L686.959612,484 L684.103612,484 L684.103612,464.064 Z M698.174064,479.296 C698.174064,479.949337 698.062065,480.569997 697.838064,481.158 C697.614063,481.746003 697.292066,482.263998 696.872064,482.712 C696.452062,483.160002 695.9434,483.514665 695.346064,483.776 C694.748728,484.037335 694.067401,484.168 693.302064,484.168 C692.387393,484.168 691.626734,483.967335 691.020064,483.566 C690.413394,483.164665 689.932732,482.768002 689.578064,482.376 L691.818064,480.584 C692.023398,480.789334 692.261396,480.961999 692.532064,481.102 C692.802732,481.242001 693.087396,481.312 693.386064,481.312 C693.554065,481.312 693.750063,481.279334 693.974064,481.214 C694.198065,481.148666 694.408063,481.027334 694.604064,480.85 C694.800065,480.672666 694.968063,480.430002 695.108064,480.122 C695.248065,479.813998 695.318064,479.408003 695.318064,478.904 L695.318064,464.064 L698.174064,464.064 L698.174064,479.296 Z M702.668516,464.064 L705.524516,464.064 L705.524516,473.164 L705.580516,473.164 L709.752516,464.064 L712.608516,464.064 L708.716516,472.044 L713.336516,484 L710.312516,484 L707.064516,475.152 L705.524516,478.036 L705.524516,484 L702.668516,484 L702.668516,464.064 Z M716.402967,464.064 L719.258967,464.064 L719.258967,481.144 L724.914967,481.144 L724.914967,484 L716.402967,484 L716.402967,464.064 Z M728.569419,464.064 L731.313419,464.064 L734.981419,474.62 L735.037419,474.62 L738.677419,464.064 L741.449419,464.064 L741.449419,484 L738.593419,484 L738.593419,471.876 L738.537419,471.876 L735.709419,480.444 L734.281419,480.444 L731.481419,471.876 L731.425419,471.876 L731.425419,484 L728.569419,484 L728.569419,464.064 Z M745.83187,464.064 L748.57587,464.064 L752.88787,476.076 L752.94387,476.076 L752.94387,464.064 L755.79987,464.064 L755.79987,484 L753.11187,484 L748.74387,472.016 L748.68787,472.016 L748.68787,484 L745.83187,484 L745.83187,464.064 Z M760.014322,468.768 C760.014322,467.965329 760.15432,467.256003 760.434322,466.64 C760.714323,466.023997 761.082986,465.515335 761.540322,465.114 C761.997657,464.712665 762.510986,464.409334 763.080322,464.204 C763.649658,463.998666 764.223652,463.896 764.802322,463.896 C765.380991,463.896 765.954986,463.998666 766.524322,464.204 C767.093658,464.409334 767.606986,464.712665 768.064322,465.114 C768.521657,465.515335 768.89032,466.023997 769.170322,466.64 C769.450323,467.256003 769.590322,467.965329 769.590322,468.768 L769.590322,479.296 C769.590322,480.117337 769.450323,480.83133 769.170322,481.438 C768.89032,482.04467 768.521657,482.548665 768.064322,482.95 C767.606986,483.351335 767.093658,483.654666 766.524322,483.86 C765.954986,484.065334 765.380991,484.168 764.802322,484.168 C764.223652,484.168 763.649658,484.065334 763.080322,483.86 C762.510986,483.654666 761.997657,483.351335 761.540322,482.95 C761.082986,482.548665 760.714323,482.04467 760.434322,481.438 C760.15432,480.83133 760.014322,480.117337 760.014322,479.296 L760.014322,468.768 Z M762.870322,479.296 C762.870322,479.98667 763.061653,480.495332 763.444322,480.822 C763.82699,481.148668 764.279653,481.312 764.802322,481.312 C765.324991,481.312 765.777653,481.148668 766.160322,480.822 C766.54299,480.495332 766.734322,479.98667 766.734322,479.296 L766.734322,468.768 C766.734322,468.07733 766.54299,467.568668 766.160322,467.242 C765.777653,466.915332 765.324991,466.752 764.802322,466.752 C764.279653,466.752 763.82699,466.915332 763.444322,467.242 C763.061653,467.568668 762.870322,468.07733 762.870322,468.768 L762.870322,479.296 Z M773.916773,464.064 L778.200773,464.064 C778.984777,464.064 779.675437,464.166666 780.272773,464.372 C780.87011,464.577334 781.411438,464.941331 781.896773,465.464 C782.382109,465.986669 782.718106,466.597996 782.904773,467.298 C783.091441,467.998003 783.184773,468.945327 783.184773,470.14 C783.184773,471.017338 783.133441,471.768664 783.030773,472.394 C782.928106,473.019336 782.708775,473.602664 782.372773,474.144 C781.980771,474.797337 781.45811,475.305998 780.804773,475.67 C780.151437,476.034002 779.292779,476.216 778.228773,476.216 L776.772773,476.216 L776.772773,484 L773.916773,484 L773.916773,464.064 Z M776.772773,473.528 L778.144773,473.528 C778.723443,473.528 779.171438,473.444001 779.488773,473.276 C779.806108,473.107999 780.039439,472.879335 780.188773,472.59 C780.338107,472.300665 780.426773,471.950669 780.454773,471.54 C780.482774,471.129331 780.496773,470.672003 780.496773,470.168 C780.496773,469.701331 780.482774,469.258002 780.454773,468.838 C780.426773,468.417998 780.342774,468.054002 780.202773,467.746 C780.062773,467.437998 779.843442,467.195334 779.544773,467.018 C779.246105,466.840666 778.816776,466.752 778.256773,466.752 L776.772773,466.752 L776.772773,473.528 Z M789.807225,479.296 C789.807225,479.98667 789.998556,480.495332 790.381225,480.822 C790.763894,481.148668 791.216556,481.312 791.739225,481.312 C791.981893,481.312 792.187224,481.274667 792.355225,481.2 L791.067225,480.164 L792.523225,478.428 L793.671225,479.352 L793.671225,479.296 L793.671225,468.768 C793.671225,468.07733 793.479894,467.568668 793.097225,467.242 C792.714556,466.915332 792.261894,466.752 791.739225,466.752 C791.216556,466.752 790.763894,466.915332 790.381225,467.242 C789.998556,467.568668 789.807225,468.07733 789.807225,468.768 L789.807225,479.296 Z M786.951225,468.768 C786.951225,467.965329 787.091224,467.256003 787.371225,466.64 C787.651226,466.023997 788.019889,465.515335 788.477225,465.114 C788.934561,464.712665 789.447889,464.409334 790.017225,464.204 C790.586561,463.998666 791.160555,463.896 791.739225,463.896 C792.317895,463.896 792.891889,463.998666 793.461225,464.204 C794.030561,464.409334 794.543889,464.712665 795.001225,465.114 C795.458561,465.515335 795.827224,466.023997 796.107225,466.64 C796.387226,467.256003 796.527225,467.965329 796.527225,468.768 L796.527225,479.296 C796.527225,480.080004 796.387226,480.76133 796.107225,481.34 L797.871225,482.768 L796.415225,484.504 L794.735225,483.132 C794.305889,483.486668 793.834561,483.747999 793.321225,483.916 C792.807889,484.084001 792.280561,484.168 791.739225,484.168 C791.160555,484.168 790.586561,484.065334 790.017225,483.86 C789.447889,483.654666 788.934561,483.351335 788.477225,482.95 C788.019889,482.548665 787.651226,482.04467 787.371225,481.438 C787.091224,480.83133 786.951225,480.117337 786.951225,479.296 L786.951225,468.768 Z M803.709677,472.968 L805.333677,472.968 C805.837679,472.968 806.239008,472.898001 806.537677,472.758 C806.836345,472.617999 807.065009,472.417335 807.223677,472.156 C807.382344,471.894665 807.489676,471.572669 807.545677,471.19 C807.601677,470.807331 807.629677,470.364003 807.629677,469.86 C807.629677,469.355997 807.601677,468.912669 807.545677,468.53 C807.489676,468.147331 807.373011,467.820668 807.195677,467.55 C807.018342,467.279332 806.771011,467.078667 806.453677,466.948 C806.136342,466.817333 805.716346,466.752 805.193677,466.752 L803.709677,466.752 L803.709677,472.968 Z M800.853677,464.064 L805.445677,464.064 C808.805693,464.064 810.485677,466.014647 810.485677,469.916 C810.485677,471.073339 810.303678,472.067329 809.939677,472.898 C809.575675,473.728671 808.936348,474.395997 808.021677,474.9 L811.101677,484 L808.077677,484 L805.417677,475.488 L803.709677,475.488 L803.709677,484 L800.853677,484 L800.853677,464.064 Z M823.828128,469.804 L820.972128,469.804 L820.972128,469.16 C820.972128,468.506663 820.81813,467.942002 820.510128,467.466 C820.202127,466.989998 819.684132,466.752 818.956128,466.752 C818.564126,466.752 818.242129,466.826666 817.990128,466.976 C817.738127,467.125334 817.542129,467.316665 817.402128,467.55 C817.262127,467.783334 817.164128,468.053998 817.108128,468.362 C817.052128,468.670002 817.024128,468.991998 817.024128,469.328 C817.024128,469.720002 817.038128,470.051332 817.066128,470.322 C817.094128,470.592668 817.164128,470.825999 817.276128,471.022 C817.388129,471.218001 817.55146,471.390666 817.766128,471.54 C817.980796,471.689334 818.274793,471.838666 818.648128,471.988 L820.832128,472.856 C821.466798,473.098668 821.980126,473.383332 822.372128,473.71 C822.76413,474.036668 823.06746,474.419331 823.282128,474.858 C823.496796,475.296669 823.641461,475.800664 823.716128,476.37 C823.790795,476.939336 823.828128,477.587996 823.828128,478.316 C823.828128,479.156004 823.744129,479.93533 823.576128,480.654 C823.408127,481.37267 823.132797,481.988664 822.750128,482.502 C822.367459,483.015336 821.858798,483.421332 821.224128,483.72 C820.589458,484.018668 819.814799,484.168 818.900128,484.168 C818.209458,484.168 817.565464,484.046668 816.968128,483.804 C816.370792,483.561332 815.857464,483.230002 815.428128,482.81 C814.998793,482.389998 814.658129,481.89067 814.406128,481.312 C814.154127,480.73333 814.028128,480.108003 814.028128,479.436 L814.028128,478.372 L816.884128,478.372 L816.884128,479.268 C816.884128,479.790669 817.038127,480.261998 817.346128,480.682 C817.65413,481.102002 818.172124,481.312 818.900128,481.312 C819.385464,481.312 819.76346,481.242001 820.034128,481.102 C820.304796,480.961999 820.510127,480.766001 820.650128,480.514 C820.790129,480.261999 820.878795,479.949335 820.916128,479.576 C820.953462,479.202665 820.972128,478.792002 820.972128,478.344 C820.972128,477.821331 820.953462,477.392002 820.916128,477.056 C820.878795,476.719998 820.799462,476.449334 820.678128,476.244 C820.556794,476.038666 820.388796,475.870667 820.174128,475.74 C819.95946,475.609333 819.674797,475.469334 819.320128,475.32 L817.276128,474.48 C816.044122,473.975997 815.21813,473.308671 814.798128,472.478 C814.378126,471.647329 814.168128,470.606673 814.168128,469.356 C814.168128,468.60933 814.270794,467.900003 814.476128,467.228 C814.681462,466.555997 814.984793,465.977336 815.386128,465.492 C815.787463,465.006664 816.296125,464.619335 816.912128,464.33 C817.528131,464.040665 818.246791,463.896 819.068128,463.896 C819.777465,463.896 820.426125,464.026665 821.014128,464.288 C821.602131,464.549335 822.106126,464.894665 822.526128,465.324 C822.94613,465.753335 823.268127,466.233997 823.492128,466.766 C823.716129,467.298003 823.828128,467.843997 823.828128,468.404 L823.828128,469.804 Z M829.63858,466.752 L826.33458,466.752 L826.33458,464.064 L835.79858,464.064 L835.79858,466.752 L832.49458,466.752 L832.49458,484 L829.63858,484 L829.63858,466.752 Z M848.105031,479.52 C848.105031,480.173337 847.983699,480.779997 847.741031,481.34 C847.498363,481.900003 847.167033,482.389998 846.747031,482.81 C846.327029,483.230002 845.837034,483.561332 845.277031,483.804 C844.717028,484.046668 844.119701,484.168 843.485031,484.168 C842.850361,484.168 842.253034,484.046668 841.693031,483.804 C841.133028,483.561332 840.643033,483.230002 840.223031,482.81 C839.803029,482.389998 839.471699,481.900003 839.229031,481.34 C838.986363,480.779997 838.865031,480.173337 838.865031,479.52 L838.865031,464.064 L841.721031,464.064 L841.721031,479.24 C841.721031,479.949337 841.88903,480.471998 842.225031,480.808 C842.561033,481.144002 842.981029,481.312 843.485031,481.312 C843.989034,481.312 844.40903,481.144002 844.745031,480.808 C845.081033,480.471998 845.249031,479.949337 845.249031,479.24 L845.249031,464.064 L848.105031,464.064 L848.105031,479.52 Z M858.199483,484 L855.679483,484 L851.619483,464.064 L854.643483,464.064 L856.911483,477.98 L856.967483,477.98 L859.263483,464.064 L862.287483,464.064 L858.199483,484 Z M877.645934,484 L874.957934,484 L872.773934,471.064 L872.717934,471.064 L870.561934,484 L867.873934,484 L864.905934,464.064 L867.929934,464.064 L869.357934,476.72 L869.413934,476.72 L871.653934,464.064 L873.837934,464.064 L876.161934,477.028 L876.217934,477.028 L877.589934,464.064 L880.613934,464.064 L877.645934,484 Z M886.844386,473.556 L883.120386,464.064 L886.144386,464.064 L888.300386,469.972 L890.484386,464.064 L893.508386,464.064 L889.700386,473.556 L893.816386,484 L890.792386,484 L888.300386,477.28 L885.836386,484 L882.812386,484 L886.844386,473.556 Z M899.570837,475.572 L895.650837,464.064 L898.674837,464.064 L900.970837,471.988 L901.026837,471.988 L903.322837,464.064 L906.346837,464.064 L902.426837,475.572 L902.426837,484 L899.570837,484 L899.570837,475.572 Z M908.657289,481.48 L914.033289,466.752 L908.937289,466.752 L908.937289,464.064 L917.141289,464.064 L917.141289,466.332 L911.653289,481.312 L917.141289,481.312 L917.141289,484 L908.657289,484 L908.657289,481.48 Z" id="abcdefghijklmnopqrst"></path>
            </g>
        </g>
    </g>
</svg>