<?xml version="1.0" encoding="UTF-8" standalone="no"?>
<svg width="47px" height="40px" viewBox="0 0 47 40" version="1.1" xmlns="http://www.w3.org/2000/svg" xmlns:xlink="http://www.w3.org/1999/xlink">
    <!-- Generator: Sketch 3.6.1 (26313) - http://www.bohemiancoding.com/sketch -->
    <title>iconmonstr-twitter-1 copy</title>
    <desc>Created with Sketch.</desc>
    <defs></defs>
    <g id="Page-1" stroke="none" stroke-width="1" fill="none" fill-rule="evenodd">
        <g id="Artboard-3-Copy-2" transform="translate(-666.000000, -172.000000)" fill="#45A8B3">
            <g id="iconmonstr-twitter-1-copy" transform="translate(666.588153, 172.387088)">
                <path d="M45.9060848,5.10355908 C44.2171234,5.88595844 42.4019203,6.41288045 40.4968178,6.65039455 C42.4420881,5.43488126 43.9359487,3.50882161 44.6379292,1.21351737 C42.8189006,2.33921441 40.8028584,3.15754027 38.6567489,3.59863786 C36.941009,1.68854555 34.4907717,0.494987349 31.7823127,0.494987349 C25.7016692,0.494987349 21.233477,6.41487637 22.606834,12.560304 C14.7817593,12.1511411 7.84228949,8.23914426 3.19621115,2.29330832 C0.728759096,6.71027205 1.91657904,12.488451 6.10933479,15.4144649 C4.56765544,15.3625711 3.11396275,14.9214735 1.84580716,14.1849802 C1.74251847,18.7376663 4.8698705,22.9969526 9.39927086,23.945013 C8.07373266,24.3202454 6.62195273,24.4080657 5.145307,24.11267 C6.34269072,28.0166831 9.82007664,30.8568727 13.9439733,30.9367093 C9.98457344,34.1760822 4.99611223,35.6231218 2.27373675e-13,35.0083794 C4.16788995,37.7966751 9.12000885,39.4233473 14.4374637,39.4233473 C31.9238565,39.4233473 41.8032285,24.0128742 41.2064494,10.1911508 C43.0465183,8.8039887 44.6436675,7.07352889 45.9060848,5.10355908 L45.9060848,5.10355908 Z" id="Shape"></path>
            </g>
        </g>
    </g>
</svg>