<?xml version="1.0" encoding="UTF-8" standalone="no"?>
<svg width="190px" height="104px" viewBox="0 0 190 104" version="1.1" xmlns="http://www.w3.org/2000/svg" xmlns:xlink="http://www.w3.org/1999/xlink">
    <!-- Generator: Sketch 3.6.1 (26313) - http://www.bohemiancoding.com/sketch -->
    <title>JORDAN </title>
    <desc>Created with Sketch.</desc>
    <defs></defs>
    <g id="Page-1" stroke="none" stroke-width="1" fill="none" fill-rule="evenodd">
        <g id="Artboard-3-Copy" transform="translate(-240.000000, -236.000000)" fill="#1C3638">
            <g id="Group" transform="translate(241.319848, 236.500000)">
                <path d="M17.1020714,33.3193225 C17.1020714,34.7193295 16.8620738,36.0493162 16.3820714,37.3093225 C15.902069,38.5693288 15.2120759,39.6793177 14.3120714,40.6393225 C13.4120669,41.5993273 12.3220778,42.3593197 11.0420714,42.9193225 C9.76206504,43.4793253 8.30207964,43.7593225 6.66207144,43.7593225 C4.70206164,43.7593225 3.07207794,43.3293268 1.77207144,42.4693225 C0.472064939,41.6093182 -0.557924761,40.7593267 -1.31792856,39.9193225 L3.48207144,36.0793225 C3.92207364,36.5193247 4.43206854,36.889321 5.01207144,37.1893225 C5.59207434,37.489324 6.20206824,37.6393225 6.84207144,37.6393225 C7.20207324,37.6393225 7.62206904,37.5693232 8.10207144,37.4293225 C8.58207384,37.2893218 9.03206934,37.0293244 9.45207144,36.6493225 C9.87207354,36.2693206 10.2320699,35.7493258 10.5320714,35.0893225 C10.8320729,34.4293192 10.9820714,33.5593279 10.9820714,32.4793225 L10.9820714,0.67932251 L17.1020714,0.67932251 L17.1020714,33.3193225 Z M31.359211,10.7593225 C31.359211,9.03931391 31.659208,7.51932911 32.259211,6.19932251 C32.859214,4.87931591 33.6492061,3.78932681 34.629211,2.92932251 C35.6092159,2.06931821 36.7092049,1.41932471 37.929211,0.97932251 C39.1492171,0.53932031 40.3792048,0.31932251 41.619211,0.31932251 C42.8592172,0.31932251 44.0892049,0.53932031 45.309211,0.97932251 C46.5292171,1.41932471 47.6292061,2.06931821 48.609211,2.92932251 C49.5892159,3.78932681 50.379208,4.87931591 50.979211,6.19932251 C51.579214,7.51932911 51.879211,9.03931391 51.879211,10.7593225 L51.879211,33.3193225 C51.879211,35.0793313 51.579214,36.609316 50.979211,37.9093225 C50.379208,39.209329 49.5892159,40.2893182 48.609211,41.1493225 C47.6292061,42.0093268 46.5292171,42.6593203 45.309211,43.0993225 C44.0892049,43.5393247 42.8592172,43.7593225 41.619211,43.7593225 C40.3792048,43.7593225 39.1492171,43.5393247 37.929211,43.0993225 C36.7092049,42.6593203 35.6092159,42.0093268 34.629211,41.1493225 C33.6492061,40.2893182 32.859214,39.209329 32.259211,37.9093225 C31.659208,36.609316 31.359211,35.0793313 31.359211,33.3193225 L31.359211,10.7593225 Z M37.479211,33.3193225 C37.479211,34.7993299 37.8892069,35.889319 38.709211,36.5893225 C39.5292151,37.289326 40.4992054,37.6393225 41.619211,37.6393225 C42.7392166,37.6393225 43.7092069,37.289326 44.529211,36.5893225 C45.3492151,35.889319 45.759211,34.7993299 45.759211,33.3193225 L45.759211,10.7593225 C45.759211,9.27931511 45.3492151,8.18932601 44.529211,7.48932251 C43.7092069,6.78931901 42.7392166,6.43932251 41.619211,6.43932251 C40.4992054,6.43932251 39.5292151,6.78931901 38.709211,7.48932251 C37.8892069,8.18932601 37.479211,9.27931511 37.479211,10.7593225 L37.479211,33.3193225 Z M72.2563506,19.7593225 L75.7363506,19.7593225 C76.816356,19.7593225 77.6763474,19.609324 78.3163506,19.3093225 C78.9563538,19.009321 79.4463489,18.5793253 79.7863506,18.0193225 C80.1263523,17.4593197 80.35635,16.7693266 80.4763506,15.9493225 C80.5963512,15.1293184 80.6563506,14.1793279 80.6563506,13.0993225 C80.6563506,12.0193171 80.5963512,11.0693266 80.4763506,10.2493225 C80.35635,9.42931841 80.1063525,8.72932541 79.7263506,8.14932251 C79.3463487,7.56931961 78.816354,7.13932391 78.1363506,6.85932251 C77.4563472,6.57932111 76.5563562,6.43932251 75.4363506,6.43932251 L72.2563506,6.43932251 L72.2563506,19.7593225 Z M66.1363506,0.67932251 L75.9763506,0.67932251 C83.1763866,0.67932251 86.7763506,4.85928071 86.7763506,13.2193225 C86.7763506,15.6993349 86.3863545,17.8293136 85.6063506,19.6093225 C84.8263467,21.3893314 83.4563604,22.8193171 81.4963506,23.8993225 L88.0963506,43.3993225 L81.6163506,43.3993225 L75.9163506,25.1593225 L72.2563506,25.1593225 L72.2563506,43.3993225 L66.1363506,43.3993225 L66.1363506,0.67932251 Z M100.55349,0.67932251 L109.61349,0.67932251 C113.093508,0.67932251 115.753481,1.64931281 117.59349,3.58932251 C119.433499,5.52933221 120.35349,8.23930511 120.35349,11.7193225 L120.35349,31.6993225 C120.35349,35.6993425 119.3835,38.649313 117.44349,40.5493225 C115.503481,42.449332 112.713508,43.3993225 109.07349,43.3993225 L100.55349,43.3993225 L100.55349,0.67932251 Z M106.67349,37.6393225 L109.49349,37.6393225 C111.213499,37.6393225 112.433487,37.2093268 113.15349,36.3493225 C113.873494,35.4893182 114.23349,34.1393317 114.23349,32.2993225 L114.23349,11.7193225 C114.23349,10.0393141 113.893494,8.73932711 113.21349,7.81932251 C112.533487,6.89931791 111.293499,6.43932251 109.49349,6.43932251 L106.67349,6.43932251 L106.67349,37.6393225 Z M143.61063,12.9793225 L143.49063,12.9793225 L140.49063,28.4593225 L146.61063,28.4593225 L143.61063,12.9793225 Z M141.03063,0.67932251 L146.13063,0.67932251 L155.67063,43.3993225 L149.55063,43.3993225 L147.75063,34.2193225 L139.41063,34.2193225 L137.61063,43.3993225 L131.49063,43.3993225 L141.03063,0.67932251 Z M167.287769,0.67932251 L173.167769,0.67932251 L182.407769,26.4193225 L182.527769,26.4193225 L182.527769,0.67932251 L188.647769,0.67932251 L188.647769,43.3993225 L182.887769,43.3993225 L173.527769,17.7193225 L173.407769,17.7193225 L173.407769,43.3993225 L167.287769,43.3993225 L167.287769,0.67932251 Z M2.88207144,60.6793225 L21.1220714,60.6793225 L21.1220714,66.4393225 L9.00207144,66.4393225 L9.00207144,78.9793225 L19.5620714,78.9793225 L19.5620714,84.7393225 L9.00207144,84.7393225 L9.00207144,97.2793225 L21.1220714,97.2793225 L21.1220714,103.399323 L2.88207144,103.399323 L2.88207144,60.6793225 Z M43.9318643,72.9793225 L43.8118643,72.9793225 L40.8118643,88.4593225 L46.9318643,88.4593225 L43.9318643,72.9793225 Z M41.3518643,60.6793225 L46.4518643,60.6793225 L55.9918643,103.399323 L49.8718643,103.399323 L48.0718643,94.2193225 L39.7318643,94.2193225 L37.9318643,103.399323 L31.8118643,103.399323 L41.3518643,60.6793225 Z M74.6016571,79.7593225 L78.0816571,79.7593225 C79.1616625,79.7593225 80.0216539,79.609324 80.6616571,79.3093225 C81.3016603,79.009321 81.7916554,78.5793253 82.1316571,78.0193225 C82.4716588,77.4593197 82.7016565,76.7693266 82.8216571,75.9493225 C82.9416577,75.1293184 83.0016571,74.1793279 83.0016571,73.0993225 C83.0016571,72.0193171 82.9416577,71.0693266 82.8216571,70.2493225 C82.7016565,69.4293184 82.451659,68.7293254 82.0716571,68.1493225 C81.6916552,67.5693196 81.1616605,67.1393239 80.4816571,66.8593225 C79.8016537,66.5793211 78.9016627,66.4393225 77.7816571,66.4393225 L74.6016571,66.4393225 L74.6016571,79.7593225 Z M68.4816571,60.6793225 L78.3216571,60.6793225 C85.5216931,60.6793225 89.1216571,64.8592807 89.1216571,73.2193225 C89.1216571,75.6993349 88.731661,77.8293136 87.9516571,79.6093225 C87.1716532,81.3893314 85.8016669,82.8193171 83.8416571,83.8993225 L90.4416571,103.399323 L83.9616571,103.399323 L78.2616571,85.1593225 L74.6016571,85.1593225 L74.6016571,103.399323 L68.4816571,103.399323 L68.4816571,60.6793225 Z M103.53145,60.6793225 L109.65145,60.6793225 L109.65145,97.2793225 L121.77145,97.2793225 L121.77145,103.399323 L103.53145,103.399323 L103.53145,60.6793225 Z M135.221243,60.6793225 L153.461243,60.6793225 L153.461243,66.4393225 L141.341243,66.4393225 L141.341243,78.9793225 L151.901243,78.9793225 L151.901243,84.7393225 L141.341243,84.7393225 L141.341243,97.2793225 L153.461243,97.2793225 L153.461243,103.399323 L135.221243,103.399323 L135.221243,60.6793225 Z" id="JORDAN-"></path>
            </g>
        </g>
    </g>
</svg>