<?xml version="1.0" encoding="UTF-8" standalone="no"?>
<svg width="436px" height="47px" viewBox="0 0 436 47" version="1.1" xmlns="http://www.w3.org/2000/svg" xmlns:xlink="http://www.w3.org/1999/xlink">
    <!-- Generator: Sketch 3.6.1 (26313) - http://www.bohemiancoding.com/sketch -->
    <title>Group</title>
    <desc>Created with Sketch.</desc>
    <defs></defs>
    <g id="Page-1" stroke="none" stroke-width="1" fill="none" fill-rule="evenodd">
        <g id="Artboard-3-Copy" transform="translate(-698.000000, -106.000000)" fill="#182F31">
            <g id="Group" transform="translate(698.180152, 106.059442)">
                <path d="M70.1268151,35.0797409 C70.1268151,36.5294728 69.8782934,37.9066975 69.3812424,39.2114563 C68.8841915,40.5162151 68.1696914,41.6656282 67.2377209,42.6597301 C66.3057503,43.653832 65.1770474,44.4408176 63.8515781,45.0207104 C62.5261089,45.6006031 61.0142683,45.8905452 59.3160108,45.8905452 C57.2863861,45.8905452 55.5985091,45.445277 54.2523295,44.5547274 C52.9061498,43.6641778 51.8395773,42.7839966 51.0525799,41.9141574 L56.0230647,37.9377696 C56.4786947,38.3933996 57.0068034,38.7765373 57.6074067,39.0871942 C58.2080099,39.397851 58.8396694,39.5531771 59.502404,39.5531771 C59.8751922,39.5531771 60.3101053,39.4806916 60.8071562,39.3357184 C61.3042072,39.1907452 61.7701855,38.9215133 62.2051051,38.5280146 C62.6400247,38.134516 63.0128073,37.5960522 63.3234641,36.9126071 C63.634121,36.229162 63.7894471,35.3282707 63.7894471,34.209906 L63.7894471,1.28044454 L70.1268151,1.28044454 L70.1268151,35.0797409 Z M84.5757501,11.7184625 C84.5757501,9.93736324 84.8864023,8.36339214 85.507716,6.996502 C86.1290297,5.62961186 86.9470804,4.5009089 87.9618928,3.61035927 C88.9767052,2.71980963 90.1157632,2.04672988 91.3791011,1.59109984 C92.6424389,1.13546979 93.9161129,0.907658183 95.2001612,0.907658183 C96.4842095,0.907658183 97.7578835,1.13546979 99.0212214,1.59109984 C100.284559,2.04672988 101.423617,2.71980963 102.43843,3.61035927 C103.453242,4.5009089 104.271293,5.62961186 104.892606,6.996502 C105.51392,8.36339214 105.824572,9.93736324 105.824572,11.7184625 L105.824572,35.0797409 C105.824572,36.902261 105.51392,38.4865872 104.892606,39.8327669 C104.271293,41.1789466 103.453242,42.2972945 102.43843,43.1878441 C101.423617,44.0783937 100.284559,44.7514735 99.0212214,45.2071035 C97.7578835,45.6627336 96.4842095,45.8905452 95.2001612,45.8905452 C93.9161129,45.8905452 92.6424389,45.6627336 91.3791011,45.2071035 C90.1157632,44.7514735 88.9767052,44.0783937 87.9618928,43.1878441 C86.9470804,42.2972945 86.1290297,41.1789466 85.507716,39.8327669 C84.8864023,38.4865872 84.5757501,36.902261 84.5757501,35.0797409 L84.5757501,11.7184625 Z M90.9131181,35.0797409 C90.9131181,36.6123146 91.3376761,37.7410176 92.1868048,38.4658836 C93.0359336,39.1907496 94.0403757,39.5531771 95.2001612,39.5531771 C96.3599468,39.5531771 97.3643889,39.1907496 98.2135176,38.4658836 C99.0626463,37.7410176 99.4872043,36.6123146 99.4872043,35.0797409 L99.4872043,11.7184625 C99.4872043,10.1858887 99.0626463,9.05718576 98.2135176,8.33231978 C97.3643889,7.6074538 96.3599468,7.24502624 95.2001612,7.24502624 C94.0403757,7.24502624 93.0359336,7.6074538 92.1868048,8.33231978 C91.3376761,9.05718576 90.9131181,10.1858887 90.9131181,11.7184625 L90.9131181,35.0797409 Z M126.610875,21.0381214 L130.214477,21.0381214 C131.332841,21.0381214 132.223378,20.8827953 132.886112,20.5721385 C133.548847,20.2614816 134.056246,19.8162135 134.408323,19.2363207 C134.760401,18.6564279 134.998568,17.9419279 135.122831,17.0927992 C135.247093,16.2436704 135.309224,15.2599385 135.309224,14.1415738 C135.309224,13.0232092 135.247093,12.0394772 135.122831,11.1903485 C134.998568,10.3412198 134.739691,9.61636468 134.346192,9.01576143 C133.952694,8.41515819 133.403875,7.96989005 132.699719,7.67994366 C131.995564,7.38999726 131.063607,7.24502624 129.903822,7.24502624 L126.610875,7.24502624 L126.610875,21.0381214 Z M120.273507,1.28044454 L130.463001,1.28044454 C137.918765,1.28044454 141.646592,5.60886506 141.646592,14.265836 C141.646592,16.8339326 141.242744,19.0395631 140.435036,20.8827938 C139.627328,22.7260244 138.208683,24.2067999 136.179059,25.3251645 L143.013475,45.5177588 L136.303321,45.5177588 L130.40087,26.6299168 L126.610875,26.6299168 L126.610875,45.5177588 L120.273507,45.5177588 L120.273507,1.28044454 Z M155.598478,1.28044454 L164.980268,1.28044454 C168.583888,1.28044454 171.338337,2.28488662 173.243699,4.29380092 C175.149061,6.30271522 176.101728,9.10894001 176.101728,12.7125595 L176.101728,33.4022022 C176.101728,37.5442936 175.097286,40.5990401 173.088371,42.5665335 C171.079457,44.5340269 168.190392,45.5177588 164.421089,45.5177588 L155.598478,45.5177588 L155.598478,1.28044454 Z M161.935846,39.5531771 L164.856006,39.5531771 C166.637105,39.5531771 167.900424,39.107909 168.646001,38.2173593 C169.391577,37.3268097 169.76436,35.9288749 169.76436,34.0235128 L169.76436,12.7125595 C169.76436,10.9728811 169.412287,9.62672161 168.708132,8.67404061 C168.003976,7.7213596 166.719947,7.24502624 164.856006,7.24502624 L161.935846,7.24502624 L161.935846,39.5531771 Z M199.870322,14.0173117 L199.74606,14.0173117 L196.639507,30.047125 L202.976875,30.047125 L199.870322,14.0173117 Z M197.198686,1.28044454 L202.479826,1.28044454 L212.358665,45.5177588 L206.021297,45.5177588 L204.157365,36.0117067 L195.521147,36.0117067 L193.657216,45.5177588 L187.319848,45.5177588 L197.198686,1.28044454 Z M224.073833,1.28044454 L230.162677,1.28044454 L239.73086,27.934669 L239.855122,27.934669 L239.855122,1.28044454 L246.19249,1.28044454 L246.19249,45.5177588 L240.227908,45.5177588 L230.535463,18.9256654 L230.411201,18.9256654 L230.411201,45.5177588 L224.073833,45.5177588 L224.073833,1.28044454 Z M281.179204,1.28044454 L300.067046,1.28044454 L300.067046,7.24502624 L287.516572,7.24502624 L287.516572,20.2304177 L298.451638,20.2304177 L298.451638,26.1949994 L287.516572,26.1949994 L287.516572,39.1803908 L300.067046,39.1803908 L300.067046,45.5177588 L281.179204,45.5177588 L281.179204,1.28044454 Z M323.349934,14.0173117 L323.225672,14.0173117 L320.119119,30.047125 L326.456487,30.047125 L323.349934,14.0173117 Z M320.678298,1.28044454 L325.959438,1.28044454 L335.838277,45.5177588 L329.500909,45.5177588 L327.636977,36.0117067 L319.00076,36.0117067 L317.136828,45.5177588 L310.79946,45.5177588 L320.678298,1.28044454 Z M354.771991,21.0381214 L358.375592,21.0381214 C359.493957,21.0381214 360.384493,20.8827953 361.047228,20.5721385 C361.709962,20.2614816 362.217361,19.8162135 362.569439,19.2363207 C362.921516,18.6564279 363.159683,17.9419279 363.283946,17.0927992 C363.408208,16.2436704 363.470339,15.2599385 363.470339,14.1415738 C363.470339,13.0232092 363.408208,12.0394772 363.283946,11.1903485 C363.159683,10.3412198 362.900806,9.61636468 362.507307,9.01576143 C362.113809,8.41515819 361.56499,7.96989005 360.860834,7.67994366 C360.156679,7.38999726 359.224722,7.24502624 358.064937,7.24502624 L354.771991,7.24502624 L354.771991,21.0381214 Z M348.434623,1.28044454 L358.624116,1.28044454 C366.079881,1.28044454 369.807707,5.60886506 369.807707,14.265836 C369.807707,16.8339326 369.403859,19.0395631 368.596151,20.8827938 C367.788443,22.7260244 366.369798,24.2067999 364.340174,25.3251645 L371.17459,45.5177588 L364.464436,45.5177588 L358.561985,26.6299168 L354.771991,26.6299168 L354.771991,45.5177588 L348.434623,45.5177588 L348.434623,1.28044454 Z M384.392247,1.28044454 L390.729615,1.28044454 L390.729615,39.1803908 L403.280089,39.1803908 L403.280089,45.5177588 L384.392247,45.5177588 L384.392247,1.28044454 Z M416.870531,1.28044454 L435.758374,1.28044454 L435.758374,7.24502624 L423.2079,7.24502624 L423.2079,20.2304177 L434.142966,20.2304177 L434.142966,26.1949994 L423.2079,26.1949994 L423.2079,39.1803908 L435.758374,39.1803908 L435.758374,45.5177588 L416.870531,45.5177588 L416.870531,1.28044454 Z" id="JORDAN-EARLE"></path>
                <g id="Rectangle-10-+-Rectangle-10-Copy-+-J" transform="translate(0.096057, 1.514341)">
                    <path d="M15.9203652,0.535195232 L28.3712216,0.535195232 L28.3712216,8.50648076 L14.5174518,8.50648076 L15.9203652,0.535195232 Z" id="Rectangle-10"></path>
                    <path d="M13.3243524,16.222805 L28.3712216,16.222805 L28.3712216,25.0735653 L11.6289305,25.0735653 L13.3243524,16.222805 Z" id="Rectangle-10-Copy"></path>
                    <path d="M9.64127182,33.4219326 C9.64127182,33.4219326 6.40095559,33.4219327 4.86146083,33.4219327 L0.312953555,33.4219327 L0.312953555,45.0966964 L10.4596236,45.0966964 C15.3580161,45.0966964 20.5363167,44.7471526 24.3150765,41.1118968 C28.0238594,37.5465498 28.1704022,33.4219327 28.1704022,33.4219327 L9.64127182,33.4219326 Z" id="J"></path>
                </g>
            </g>
        </g>
    </g>
</svg>