<?xml version="1.0" encoding="UTF-8" standalone="no"?>
<svg width="1000px" height="143px" viewBox="0 0 1000 143" version="1.1" xmlns="http://www.w3.org/2000/svg" xmlns:xlink="http://www.w3.org/1999/xlink">
    <!-- Generator: Sketch 3.6.1 (26313) - http://www.bohemiancoding.com/sketch -->
    <title>Wordmark</title>
    <desc>Created with Sketch.</desc>
    <defs></defs>
    <g id="Page-1" stroke="none" stroke-width="1" fill="none" fill-rule="evenodd">
        <g id="Wordmark" fill="#F8F8F8">
            <g id="Artboard-6">
                <path d="M60.7370337,108.606309 C60.7370337,113.206473 59.9484459,117.576564 58.3712466,121.716712 C56.7940473,125.85686 54.5268574,129.504079 51.5696087,132.658477 C48.61236,135.812876 45.0308571,138.310071 40.8249924,140.150136 C36.6191277,141.990202 31.821885,142.910221 26.433121,142.910221 C19.9928905,142.910221 14.6370652,141.497335 10.3654838,138.67152 C6.0939024,135.845704 2.70954641,133.052789 0.212314225,130.29269 L15.9842281,117.675159 C17.4299939,119.120925 19.1057431,120.336665 21.0115256,121.322414 C22.9173082,122.308164 24.9216354,122.801031 27.0245678,122.801031 C28.2074671,122.801031 29.5874959,122.571026 31.1646952,122.11101 C32.7418944,121.650994 34.2204965,120.79669 35.600546,119.548074 C36.9805954,118.299458 38.1634771,116.590851 39.1492266,114.422202 C40.134976,112.253553 40.6278435,109.394922 40.6278435,105.846224 L40.6278435,1.35729451 L60.7370337,1.35729451 L60.7370337,108.606309 L60.7370337,108.606309 L60.7370337,108.606309 Z M87.2113173,34.4783136 C87.2113173,28.8266827 88.1970522,23.8322933 90.1685511,19.4949955 C92.1400503,15.1576973 94.7358183,11.5761944 97.9559336,8.75037913 C101.176049,5.92456385 104.790409,3.78880497 108.799124,2.34303913 C112.807839,0.897272975 116.849352,0.174400971 120.923783,0.174400971 C124.998215,0.174400971 129.039727,0.897272975 133.048442,2.34303913 C137.057157,3.78880497 140.671517,5.92456385 143.891633,8.75037913 C147.111748,11.5761944 149.707516,15.1576973 151.679015,19.4949955 C153.650514,23.8322933 154.636249,28.8266827 154.636249,34.4783136 L154.636249,108.606309 C154.636249,114.389373 153.650514,119.41662 151.679015,123.688201 C149.707516,127.959783 147.111748,131.508428 143.891633,134.334243 C140.671517,137.160059 137.057157,139.295817 133.048442,140.741583 C129.039727,142.187349 124.998215,142.910221 120.923783,142.910221 C116.849352,142.910221 112.807839,142.187349 108.799124,140.741583 C104.790409,139.295817 101.176049,137.160059 97.9559336,134.334243 C94.7358183,131.508428 92.1400503,127.959783 90.1685511,123.688201 C88.1970522,119.41662 87.2113173,114.389373 87.2113173,108.606309 L87.2113173,34.4783136 L87.2113173,34.4783136 L87.2113173,34.4783136 Z M107.320507,108.606309 C107.320507,113.46934 108.667678,117.050843 111.36206,119.350925 C114.056443,121.651007 117.243652,122.801031 120.923783,122.801031 C124.603915,122.801031 127.791124,121.651007 130.485506,119.350925 C133.179888,117.050843 134.527059,113.46934 134.527059,108.606309 L134.527059,34.4783136 C134.527059,29.6152827 133.179888,26.0337795 130.485506,23.7336973 C127.791124,21.4336151 124.603915,20.2835911 120.923783,20.2835911 C117.243652,20.2835911 114.056443,21.4336151 111.36206,23.7336973 C108.667678,26.0337795 107.320507,29.6152827 107.320507,34.4783136 L107.320507,108.606309 L107.320507,108.606309 L107.320507,108.606309 Z M201.219723,64.0506521 L212.65436,64.0506521 C216.203059,64.0506521 219.028832,63.5577847 221.131764,62.5720352 C223.234696,61.5862857 224.84473,60.1733992 225.961913,58.3333333 C227.079096,56.4932675 227.834826,54.2260776 228.229125,51.5316955 C228.623425,48.8373133 228.820572,45.7158201 228.820572,42.1671216 C228.820572,38.6184234 228.623425,35.4969299 228.229125,32.8025478 C227.834826,30.1081656 227.01338,27.808118 225.764764,25.9023355 C224.516148,23.9965529 222.774683,22.5836667 220.540317,21.6636336 C218.305952,20.7436008 215.348747,20.2835911 211.668616,20.2835911 L201.219723,20.2835911 L201.219723,64.0506521 L201.219723,64.0506521 L201.219723,64.0506521 Z M181.110533,1.35729451 L213.442956,1.35729451 C237.100945,1.35729451 248.929762,15.0918656 248.929762,42.5614195 C248.929762,50.7102824 247.648307,57.7089991 245.085358,63.5577798 C242.522409,69.4065605 238.020887,74.1052296 231.580657,77.6539278 L253.267039,141.727328 L231.974955,141.727328 L213.245807,81.7940552 L201.219723,81.7940552 L201.219723,141.727328 L181.110533,141.727328 L181.110533,1.35729451 L181.110533,1.35729451 L181.110533,1.35729451 Z M273.826855,1.35729451 L303.596342,1.35729451 C315.031037,1.35729451 323.771219,4.54450349 329.817149,10.9190173 C335.863079,17.2935311 338.885999,26.1980018 338.885999,37.6326964 L338.885999,103.283288 C338.885999,116.426615 335.69879,126.119674 329.324277,132.362754 C322.949763,138.605834 313.782429,141.727328 301.822002,141.727328 L273.826855,141.727328 L273.826855,1.35729451 L273.826855,1.35729451 L273.826855,1.35729451 Z M293.936045,122.801031 L303.202044,122.801031 C308.853676,122.801031 312.862329,121.388145 315.228129,118.562329 C317.593928,115.736514 318.776809,111.300708 318.776809,105.254777 L318.776809,37.6326964 C318.776809,32.1124989 317.659642,27.8409818 315.425278,24.8180164 C313.190913,21.795051 309.116542,20.2835911 303.202044,20.2835911 L293.936045,20.2835911 L293.936045,122.801031 L293.936045,122.801031 L293.936045,122.801031 Z M394.932621,41.7728238 L394.538323,41.7728238 L384.680877,92.637246 L404.790067,92.637246 L394.932621,41.7728238 L394.932621,41.7728238 L394.932621,41.7728238 Z M386.455217,1.35729451 L403.212875,1.35729451 L434.559554,141.727328 L414.450364,141.727328 L408.535896,111.563543 L381.132196,111.563543 L375.217728,141.727328 L355.108538,141.727328 L386.455217,1.35729451 L386.455217,1.35729451 L386.455217,1.35729451 Z M452.359287,1.35729451 L471.679882,1.35729451 L502.040816,85.9341826 L502.435114,85.9341826 L502.435114,1.35729451 L522.544304,1.35729451 L522.544304,141.727328 L503.618007,141.727328 L472.862775,57.3475887 L472.468477,57.3475887 L472.468477,141.727328 L452.359287,141.727328 L452.359287,1.35729451 L452.359287,1.35729451 L452.359287,1.35729451 Z M594.813464,1.35729451 L654.746736,1.35729451 L654.746736,20.2835911 L614.922654,20.2835911 L614.922654,61.4877161 L649.620864,61.4877161 L649.620864,80.4140127 L614.922654,80.4140127 L614.922654,121.618138 L654.746736,121.618138 L654.746736,141.727328 L594.813464,141.727328 L594.813464,1.35729451 L594.813464,1.35729451 L594.813464,1.35729451 Z M707.24468,41.7728238 L706.850382,41.7728238 L696.992936,92.637246 L717.102126,92.637246 L707.24468,41.7728238 L707.24468,41.7728238 L707.24468,41.7728238 Z M698.767276,1.35729451 L715.524935,1.35729451 L746.871614,141.727328 L726.762423,141.727328 L720.847956,111.563543 L693.444255,111.563543 L687.529788,141.727328 L667.420598,141.727328 L698.767276,1.35729451 L698.767276,1.35729451 L698.767276,1.35729451 Z M785.56913,64.0506521 L797.003767,64.0506521 C800.552466,64.0506521 803.378238,63.5577847 805.481171,62.5720352 C807.584104,61.5862857 809.194137,60.1733992 810.311319,58.3333333 C811.428502,56.4932675 812.184231,54.2260776 812.578532,51.5316955 C812.972833,48.8373133 813.169979,45.7158201 813.169979,42.1671216 C813.169979,38.6184234 812.972833,35.4969299 812.578532,32.8025478 C812.184231,30.1081656 811.362787,27.808118 810.11417,25.9023355 C808.865554,23.9965529 807.124089,22.5836667 804.889724,21.6636336 C802.655359,20.7436008 799.698153,20.2835911 796.018022,20.2835911 L785.56913,20.2835911 L785.56913,64.0506521 L785.56913,64.0506521 L785.56913,64.0506521 Z M765.459939,1.35729451 L797.792363,1.35729451 C821.450352,1.35729451 833.279169,15.0918656 833.279169,42.5614195 C833.279169,50.7102824 831.997713,57.7089991 829.434765,63.5577798 C826.871817,69.4065605 822.370294,74.1052296 815.930064,77.6539278 L837.616445,141.727328 L816.324362,141.727328 L797.595214,81.7940552 L785.56913,81.7940552 L785.56913,141.727328 L765.459939,141.727328 L765.459939,1.35729451 L765.459939,1.35729451 L765.459939,1.35729451 Z M858.17626,1.35729451 L878.28545,1.35729451 L878.28545,121.618138 L918.109533,121.618138 L918.109533,141.727328 L858.17626,141.727328 L858.17626,1.35729451 L858.17626,1.35729451 L858.17626,1.35729451 Z M939.852244,1.35729451 L999.785517,1.35729451 L999.785517,20.2835911 L959.961435,20.2835911 L959.961435,61.4877161 L994.659645,61.4877161 L994.659645,80.4140127 L959.961435,80.4140127 L959.961435,121.618138 L999.785517,121.618138 L999.785517,141.727328 L939.852244,141.727328 L939.852244,1.35729451 L939.852244,1.35729451 L939.852244,1.35729451 Z" id="JORDAN-EARLE"></path>
            </g>
        </g>
    </g>
</svg>