<?xml version="1.0" encoding="UTF-8" standalone="no"?>
<svg width="3297px" height="472px" viewBox="0 0 3297 472" version="1.1" xmlns="http://www.w3.org/2000/svg" xmlns:xlink="http://www.w3.org/1999/xlink">
    <!-- Generator: Sketch 3.6.1 (26313) - http://www.bohemiancoding.com/sketch -->
    <title>JORDAN EARLE</title>
    <desc>Created with Sketch.</desc>
    <defs></defs>
    <g id="Page-1" stroke="none" stroke-width="1" fill="none" fill-rule="evenodd">
        <g id="Artboard-6" transform="translate(-74.000000, -210.000000)" fill="#F8F8F8">
            <path d="M274.25,568.075 C274.25,583.241743 271.650026,597.649932 266.45,611.3 C261.249974,624.950068 253.775049,636.974948 244.025,647.375 C234.274951,657.775052 222.466736,666.008303 208.6,672.075 C194.733264,678.141697 178.916755,681.175 161.15,681.175 C139.91656,681.175 122.258404,676.516713 108.175,667.2 C94.0915962,657.883287 82.9333745,648.675046 74.7,639.575 L126.7,597.975 C131.46669,602.741691 136.991635,606.749984 143.275,610 C149.558365,613.250016 156.166632,614.875 163.1,614.875 C167.000019,614.875 171.549974,614.116674 176.75,612.6 C181.950026,611.083326 186.824977,608.266687 191.375,604.15 C195.925023,600.033313 199.824984,594.400036 203.075,587.25 C206.325016,580.099964 207.95,570.675059 207.95,558.975 L207.95,214.475 L274.25,214.475 L274.25,568.075 L274.25,568.075 Z M361.535713,323.675 C361.535713,305.041573 364.785681,288.575071 371.285713,274.275 C377.785746,259.974928 386.343993,248.166713 396.960713,238.85 C407.577433,229.533287 419.49398,222.49169 432.710713,217.725 C445.927446,212.958309 459.252313,210.575 472.685713,210.575 C486.119114,210.575 499.44398,212.958309 512.660713,217.725 C525.877446,222.49169 537.793993,229.533287 548.410713,238.85 C559.027433,248.166713 567.585681,259.974928 574.085713,274.275 C580.585746,288.575071 583.835713,305.041573 583.835713,323.675 L583.835713,568.075 C583.835713,587.141762 580.585746,603.716596 574.085713,617.8 C567.585681,631.883404 559.027433,643.583287 548.410713,652.9 C537.793993,662.216713 525.877446,669.258309 512.660713,674.025 C499.44398,678.79169 486.119114,681.175 472.685713,681.175 C459.252313,681.175 445.927446,678.79169 432.710713,674.025 C419.49398,669.258309 407.577433,662.216713 396.960713,652.9 C386.343993,643.583287 377.785746,631.883404 371.285713,617.8 C364.785681,603.716596 361.535713,587.141762 361.535713,568.075 L361.535713,323.675 L361.535713,323.675 Z M427.835713,568.075 C427.835713,584.108414 432.277335,595.916629 441.160713,603.5 C450.044091,611.083371 460.552319,614.875 472.685713,614.875 C484.819107,614.875 495.327335,611.083371 504.210713,603.5 C513.094091,595.916629 517.535713,584.108414 517.535713,568.075 L517.535713,323.675 C517.535713,307.641587 513.094091,295.833371 504.210713,288.25 C495.327335,280.666629 484.819107,276.875 472.685713,276.875 C460.552319,276.875 450.044091,280.666629 441.160713,288.25 C432.277335,295.833371 427.835713,307.641587 427.835713,323.675 L427.835713,568.075 L427.835713,568.075 Z M737.421426,421.175 L775.121426,421.175 C786.821485,421.175 796.138058,419.550016 803.071426,416.3 C810.004794,413.049984 815.313075,408.391697 818.996426,402.325 C822.679778,396.258303 825.17142,388.783378 826.471426,379.9 C827.771433,371.016622 828.421426,360.725059 828.421426,349.025 C828.421426,337.324942 827.771433,327.033378 826.471426,318.15 C825.17142,309.266622 822.463114,301.683365 818.346426,295.4 C814.229739,289.116635 808.48813,284.458349 801.121426,281.425 C793.754723,278.391652 784.00482,276.875 771.871426,276.875 L737.421426,276.875 L737.421426,421.175 L737.421426,421.175 Z M671.121426,214.475 L777.721426,214.475 C855.721816,214.475 894.721426,259.757881 894.721426,350.325 C894.721426,377.191801 890.496469,400.26657 882.046426,419.55 C873.596384,438.83343 858.754866,454.324942 837.521426,466.025 L909.021426,677.275 L838.821426,677.275 L777.071426,479.675 L737.421426,479.675 L737.421426,677.275 L671.121426,677.275 L671.121426,214.475 L671.121426,214.475 Z M976.80714,214.475 L1074.95714,214.475 C1112.65733,214.475 1141.47371,224.983228 1161.40714,246 C1181.34057,267.016772 1191.30714,296.374812 1191.30714,334.075 L1191.30714,550.525 C1191.30714,593.85855 1180.79891,625.816564 1159.78214,646.4 C1138.76537,666.983436 1108.54067,677.275 1069.10714,677.275 L976.80714,677.275 L976.80714,214.475 L976.80714,214.475 Z M1043.10714,614.875 L1073.65714,614.875 C1092.29057,614.875 1105.5071,610.216713 1113.30714,600.9 C1121.10718,591.583287 1125.00714,576.958433 1125.00714,557.025 L1125.00714,334.075 C1125.00714,315.874909 1121.32384,301.791717 1113.95714,291.825 C1106.59044,281.858283 1093.15724,276.875 1073.65714,276.875 L1043.10714,276.875 L1043.10714,614.875 L1043.10714,614.875 Z M1376.09285,347.725 L1374.79285,347.725 L1342.29285,515.425 L1408.59285,515.425 L1376.09285,347.725 L1376.09285,347.725 Z M1348.14285,214.475 L1403.39285,214.475 L1506.74285,677.275 L1440.44285,677.275 L1420.94285,577.825 L1330.59285,577.825 L1311.09285,677.275 L1244.79285,677.275 L1348.14285,214.475 L1348.14285,214.475 Z M1565.42857,214.475 L1629.12857,214.475 L1729.22857,493.325 L1730.52857,493.325 L1730.52857,214.475 L1796.82857,214.475 L1796.82857,677.275 L1734.42857,677.275 L1633.02857,399.075 L1631.72857,399.075 L1631.72857,677.275 L1565.42857,677.275 L1565.42857,214.475 L1565.42857,214.475 Z M2035.09999,214.475 L2232.69999,214.475 L2232.69999,276.875 L2101.39999,276.875 L2101.39999,412.725 L2215.79999,412.725 L2215.79999,475.125 L2101.39999,475.125 L2101.39999,610.975 L2232.69999,610.975 L2232.69999,677.275 L2035.09999,677.275 L2035.09999,214.475 L2035.09999,214.475 Z M2405.78571,347.725 L2404.48571,347.725 L2371.98571,515.425 L2438.28571,515.425 L2405.78571,347.725 L2405.78571,347.725 Z M2377.83571,214.475 L2433.08571,214.475 L2536.43571,677.275 L2470.13571,677.275 L2450.63571,577.825 L2360.28571,577.825 L2340.78571,677.275 L2274.48571,677.275 L2377.83571,214.475 L2377.83571,214.475 Z M2664.02142,421.175 L2701.72142,421.175 C2713.42148,421.175 2722.73805,419.550016 2729.67142,416.3 C2736.60479,413.049984 2741.91307,408.391697 2745.59642,402.325 C2749.27977,396.258303 2751.77141,388.783378 2753.07142,379.9 C2754.37143,371.016622 2755.02142,360.725059 2755.02142,349.025 C2755.02142,337.324942 2754.37143,327.033378 2753.07142,318.15 C2751.77141,309.266622 2749.06311,301.683365 2744.94642,295.4 C2740.82973,289.116635 2735.08812,284.458349 2727.72142,281.425 C2720.35472,278.391652 2710.60481,276.875 2698.47142,276.875 L2664.02142,276.875 L2664.02142,421.175 L2664.02142,421.175 Z M2597.72142,214.475 L2704.32142,214.475 C2782.32181,214.475 2821.32142,259.757881 2821.32142,350.325 C2821.32142,377.191801 2817.09646,400.26657 2808.64642,419.55 C2800.19638,438.83343 2785.35486,454.324942 2764.12142,466.025 L2835.62142,677.275 L2765.42142,677.275 L2703.67142,479.675 L2664.02142,479.675 L2664.02142,677.275 L2597.72142,677.275 L2597.72142,214.475 L2597.72142,214.475 Z M2903.40713,214.475 L2969.70713,214.475 L2969.70713,610.975 L3101.00713,610.975 L3101.00713,677.275 L2903.40713,677.275 L2903.40713,214.475 L2903.40713,214.475 Z M3172.69285,214.475 L3370.29285,214.475 L3370.29285,276.875 L3238.99285,276.875 L3238.99285,412.725 L3353.39285,412.725 L3353.39285,475.125 L3238.99285,475.125 L3238.99285,610.975 L3370.29285,610.975 L3370.29285,677.275 L3172.69285,677.275 L3172.69285,214.475 L3172.69285,214.475 Z" id="JORDAN-EARLE"></path>
        </g>
    </g>
</svg>