<?xml version="1.0" encoding="UTF-8" standalone="no"?>
<svg width="296px" height="104px" viewBox="0 0 296 104" version="1.1" xmlns="http://www.w3.org/2000/svg" xmlns:xlink="http://www.w3.org/1999/xlink">
    <!-- Generator: Sketch 3.6.1 (26313) - http://www.bohemiancoding.com/sketch -->
    <title>Group Copy</title>
    <desc>Created with Sketch.</desc>
    <defs></defs>
    <g id="Page-1" stroke="none" stroke-width="1" fill="none" fill-rule="evenodd">
        <g id="Artboard-3-Copy" transform="translate(-760.000000, -236.000000)" fill="#1C3638">
            <g id="Group-Copy" transform="translate(759.680152, 236.500000)">
                <path d="M124.102071,33.3193225 C124.102071,34.7193295 123.862074,36.0493162 123.382071,37.3093225 C122.902069,38.5693288 122.212076,39.6793177 121.312071,40.6393225 C120.412067,41.5993273 119.322078,42.3593197 118.042071,42.9193225 C116.762065,43.4793253 115.30208,43.7593225 113.662071,43.7593225 C111.702062,43.7593225 110.072078,43.3293268 108.772071,42.4693225 C107.472065,41.6093182 106.442075,40.7593267 105.682071,39.9193225 L110.482071,36.0793225 C110.922074,36.5193247 111.432069,36.889321 112.012071,37.1893225 C112.592074,37.489324 113.202068,37.6393225 113.842071,37.6393225 C114.202073,37.6393225 114.622069,37.5693232 115.102071,37.4293225 C115.582074,37.2893218 116.032069,37.0293244 116.452071,36.6493225 C116.872074,36.2693206 117.23207,35.7493258 117.532071,35.0893225 C117.832073,34.4293192 117.982071,33.5593279 117.982071,32.4793225 L117.982071,0.67932251 L124.102071,0.67932251 L124.102071,33.3193225 Z M138.359211,10.7593225 C138.359211,9.03931391 138.659208,7.51932911 139.259211,6.19932251 C139.859214,4.87931591 140.649206,3.78932681 141.629211,2.92932251 C142.609216,2.06931821 143.709205,1.41932471 144.929211,0.97932251 C146.149217,0.53932031 147.379205,0.31932251 148.619211,0.31932251 C149.859217,0.31932251 151.089205,0.53932031 152.309211,0.97932251 C153.529217,1.41932471 154.629206,2.06931821 155.609211,2.92932251 C156.589216,3.78932681 157.379208,4.87931591 157.979211,6.19932251 C158.579214,7.51932911 158.879211,9.03931391 158.879211,10.7593225 L158.879211,33.3193225 C158.879211,35.0793313 158.579214,36.609316 157.979211,37.9093225 C157.379208,39.209329 156.589216,40.2893182 155.609211,41.1493225 C154.629206,42.0093268 153.529217,42.6593203 152.309211,43.0993225 C151.089205,43.5393247 149.859217,43.7593225 148.619211,43.7593225 C147.379205,43.7593225 146.149217,43.5393247 144.929211,43.0993225 C143.709205,42.6593203 142.609216,42.0093268 141.629211,41.1493225 C140.649206,40.2893182 139.859214,39.209329 139.259211,37.9093225 C138.659208,36.609316 138.359211,35.0793313 138.359211,33.3193225 L138.359211,10.7593225 Z M144.479211,33.3193225 C144.479211,34.7993299 144.889207,35.889319 145.709211,36.5893225 C146.529215,37.289326 147.499205,37.6393225 148.619211,37.6393225 C149.739217,37.6393225 150.709207,37.289326 151.529211,36.5893225 C152.349215,35.889319 152.759211,34.7993299 152.759211,33.3193225 L152.759211,10.7593225 C152.759211,9.27931511 152.349215,8.18932601 151.529211,7.48932251 C150.709207,6.78931901 149.739217,6.43932251 148.619211,6.43932251 C147.499205,6.43932251 146.529215,6.78931901 145.709211,7.48932251 C144.889207,8.18932601 144.479211,9.27931511 144.479211,10.7593225 L144.479211,33.3193225 Z M179.256351,19.7593225 L182.736351,19.7593225 C183.816356,19.7593225 184.676347,19.609324 185.316351,19.3093225 C185.956354,19.009321 186.446349,18.5793253 186.786351,18.0193225 C187.126352,17.4593197 187.35635,16.7693266 187.476351,15.9493225 C187.596351,15.1293184 187.656351,14.1793279 187.656351,13.0993225 C187.656351,12.0193171 187.596351,11.0693266 187.476351,10.2493225 C187.35635,9.42931841 187.106353,8.72932541 186.726351,8.14932251 C186.346349,7.56931961 185.816354,7.13932391 185.136351,6.85932251 C184.456347,6.57932111 183.556356,6.43932251 182.436351,6.43932251 L179.256351,6.43932251 L179.256351,19.7593225 Z M173.136351,0.67932251 L182.976351,0.67932251 C190.176387,0.67932251 193.776351,4.85928071 193.776351,13.2193225 C193.776351,15.6993349 193.386355,17.8293136 192.606351,19.6093225 C191.826347,21.3893314 190.45636,22.8193171 188.496351,23.8993225 L195.096351,43.3993225 L188.616351,43.3993225 L182.916351,25.1593225 L179.256351,25.1593225 L179.256351,43.3993225 L173.136351,43.3993225 L173.136351,0.67932251 Z M207.55349,0.67932251 L216.61349,0.67932251 C220.093508,0.67932251 222.753481,1.64931281 224.59349,3.58932251 C226.433499,5.52933221 227.35349,8.23930511 227.35349,11.7193225 L227.35349,31.6993225 C227.35349,35.6993425 226.3835,38.649313 224.44349,40.5493225 C222.503481,42.449332 219.713508,43.3993225 216.07349,43.3993225 L207.55349,43.3993225 L207.55349,0.67932251 Z M213.67349,37.6393225 L216.49349,37.6393225 C218.213499,37.6393225 219.433487,37.2093268 220.15349,36.3493225 C220.873494,35.4893182 221.23349,34.1393317 221.23349,32.2993225 L221.23349,11.7193225 C221.23349,10.0393141 220.893494,8.73932711 220.21349,7.81932251 C219.533487,6.89931791 218.293499,6.43932251 216.49349,6.43932251 L213.67349,6.43932251 L213.67349,37.6393225 Z M250.61063,12.9793225 L250.49063,12.9793225 L247.49063,28.4593225 L253.61063,28.4593225 L250.61063,12.9793225 Z M248.03063,0.67932251 L253.13063,0.67932251 L262.67063,43.3993225 L256.55063,43.3993225 L254.75063,34.2193225 L246.41063,34.2193225 L244.61063,43.3993225 L238.49063,43.3993225 L248.03063,0.67932251 Z M274.287769,0.67932251 L280.167769,0.67932251 L289.407769,26.4193225 L289.527769,26.4193225 L289.527769,0.67932251 L295.647769,0.67932251 L295.647769,43.3993225 L289.887769,43.3993225 L280.527769,17.7193225 L280.407769,17.7193225 L280.407769,43.3993225 L274.287769,43.3993225 L274.287769,0.67932251 Z M109.882071,60.6793225 L128.122071,60.6793225 L128.122071,66.4393225 L116.002071,66.4393225 L116.002071,78.9793225 L126.562071,78.9793225 L126.562071,84.7393225 L116.002071,84.7393225 L116.002071,97.2793225 L128.122071,97.2793225 L128.122071,103.399323 L109.882071,103.399323 L109.882071,60.6793225 Z M150.931864,72.9793225 L150.811864,72.9793225 L147.811864,88.4593225 L153.931864,88.4593225 L150.931864,72.9793225 Z M148.351864,60.6793225 L153.451864,60.6793225 L162.991864,103.399323 L156.871864,103.399323 L155.071864,94.2193225 L146.731864,94.2193225 L144.931864,103.399323 L138.811864,103.399323 L148.351864,60.6793225 Z M181.601657,79.7593225 L185.081657,79.7593225 C186.161662,79.7593225 187.021654,79.609324 187.661657,79.3093225 C188.30166,79.009321 188.791655,78.5793253 189.131657,78.0193225 C189.471659,77.4593197 189.701656,76.7693266 189.821657,75.9493225 C189.941658,75.1293184 190.001657,74.1793279 190.001657,73.0993225 C190.001657,72.0193171 189.941658,71.0693266 189.821657,70.2493225 C189.701656,69.4293184 189.451659,68.7293254 189.071657,68.1493225 C188.691655,67.5693196 188.16166,67.1393239 187.481657,66.8593225 C186.801654,66.5793211 185.901663,66.4393225 184.781657,66.4393225 L181.601657,66.4393225 L181.601657,79.7593225 Z M175.481657,60.6793225 L185.321657,60.6793225 C192.521693,60.6793225 196.121657,64.8592807 196.121657,73.2193225 C196.121657,75.6993349 195.731661,77.8293136 194.951657,79.6093225 C194.171653,81.3893314 192.801667,82.8193171 190.841657,83.8993225 L197.441657,103.399323 L190.961657,103.399323 L185.261657,85.1593225 L181.601657,85.1593225 L181.601657,103.399323 L175.481657,103.399323 L175.481657,60.6793225 Z M210.53145,60.6793225 L216.65145,60.6793225 L216.65145,97.2793225 L228.77145,97.2793225 L228.77145,103.399323 L210.53145,103.399323 L210.53145,60.6793225 Z M242.221243,60.6793225 L260.461243,60.6793225 L260.461243,66.4393225 L248.341243,66.4393225 L248.341243,78.9793225 L258.901243,78.9793225 L258.901243,84.7393225 L248.341243,84.7393225 L248.341243,97.2793225 L260.461243,97.2793225 L260.461243,103.399323 L242.221243,103.399323 L242.221243,60.6793225 Z" id="JORDAN-"></path>
                <g id="Group-2" transform="translate(0.000000, 1.000000)">
                    <path d="M35.4350105,0.584718663 L63.089007,0.584718663 L63.089007,18.2893563 L32.3190672,18.2893563 L35.4350105,0.584718663 Z" id="Rectangle-10-Copy-2"></path>
                    <path d="M29.6691318,35.4277119 L63.089007,35.4277119 L63.089007,55.0857085 L25.903512,55.0857085 L29.6691318,35.4277119 Z" id="Rectangle-10-Copy-3"></path>
                    <path d="M21.4888192,73.6278643 C21.4888192,73.6278643 14.2919092,73.6278644 10.8726116,73.6278644 L0.770141602,73.6278644 L0.770141602,99.5581188 L23.3064209,99.5581188 C34.186004,99.5581188 45.6872776,98.7817638 54.0800988,90.7076727 C62.3174975,82.7888525 62.6429767,73.6278644 62.6429767,73.6278644 L21.4888192,73.6278643 Z" id="J-Copy"></path>
                </g>
            </g>
        </g>
    </g>
</svg>