<?xml version="1.0" encoding="UTF-8" standalone="no"?>
<svg width="435px" height="51px" viewBox="0 0 435 51" version="1.1" xmlns="http://www.w3.org/2000/svg" xmlns:xlink="http://www.w3.org/1999/xlink">
    <!-- Generator: Sketch 3.6.1 (26313) - http://www.bohemiancoding.com/sketch -->
    <title>JORDAN EARLE</title>
    <desc>Created with Sketch.</desc>
    <defs></defs>
    <g id="Page-1" stroke="none" stroke-width="1" fill="none" fill-rule="evenodd">
        <g id="Artboard-3-Copy" transform="translate(-128.000000, -106.000000)" fill="#203D3F">
            <path d="M149.769848,144.544442 C149.769848,146.177783 149.489851,147.729434 148.929848,149.199442 C148.369845,150.669449 147.564853,151.964436 146.514848,153.084442 C145.464843,154.204447 144.193189,155.091105 142.699848,155.744442 C141.206507,156.397778 139.503191,156.724442 137.589848,156.724442 C135.30317,156.724442 133.401522,156.22278 131.884848,155.219442 C130.368174,154.216103 129.166519,153.224447 128.279848,152.244442 L133.879848,147.764442 C134.393184,148.277778 134.988178,148.70944 135.664848,149.059442 C136.341518,149.409443 137.053178,149.584442 137.799848,149.584442 C138.21985,149.584442 138.709845,149.502776 139.269848,149.339442 C139.829851,149.176107 140.354846,148.872777 140.844848,148.429442 C141.33485,147.986106 141.754846,147.379445 142.104848,146.609442 C142.45485,145.839438 142.629848,144.824448 142.629848,143.564442 L142.629848,106.464442 L149.769848,106.464442 L149.769848,144.544442 Z M166.403177,118.224442 C166.403177,116.217765 166.753174,114.444449 167.453177,112.904442 C168.153181,111.364434 169.074838,110.09278 170.218177,109.089442 C171.361516,108.086103 172.644837,107.327778 174.068177,106.814442 C175.491518,106.301106 176.926503,106.044442 178.373177,106.044442 C179.819851,106.044442 181.254837,106.301106 182.678177,106.814442 C184.101518,107.327778 185.384838,108.086103 186.528177,109.089442 C187.671516,110.09278 188.593174,111.364434 189.293177,112.904442 C189.993181,114.444449 190.343177,116.217765 190.343177,118.224442 L190.343177,144.544442 C190.343177,146.597785 189.993181,148.382767 189.293177,149.899442 C188.593174,151.416116 187.671516,152.676103 186.528177,153.679442 C185.384838,154.68278 184.101518,155.441106 182.678177,155.954442 C181.254837,156.467778 179.819851,156.724442 178.373177,156.724442 C176.926503,156.724442 175.491518,156.467778 174.068177,155.954442 C172.644837,155.441106 171.361516,154.68278 170.218177,153.679442 C169.074838,152.676103 168.153181,151.416116 167.453177,149.899442 C166.753174,148.382767 166.403177,146.597785 166.403177,144.544442 L166.403177,118.224442 Z M173.543177,144.544442 C173.543177,146.271117 174.021506,147.542771 174.978177,148.359442 C175.934849,149.176112 177.066504,149.584442 178.373177,149.584442 C179.67985,149.584442 180.811506,149.176112 181.768177,148.359442 C182.724849,147.542771 183.203177,146.271117 183.203177,144.544442 L183.203177,118.224442 C183.203177,116.497766 182.724849,115.226112 181.768177,114.409442 C180.811506,113.592771 179.67985,113.184442 178.373177,113.184442 C177.066504,113.184442 175.934849,113.592771 174.978177,114.409442 C174.021506,115.226112 173.543177,116.497766 173.543177,118.224442 L173.543177,144.544442 Z M214.116506,128.724442 L218.176506,128.724442 C219.436513,128.724442 220.439836,128.549443 221.186506,128.199442 C221.933177,127.84944 222.504838,127.347778 222.901506,126.694442 C223.298175,126.041105 223.566506,125.236113 223.706506,124.279442 C223.846507,123.32277 223.916506,122.214448 223.916506,120.954442 C223.916506,119.694435 223.846507,118.586113 223.706506,117.629442 C223.566506,116.67277 223.274842,115.856112 222.831506,115.179442 C222.388171,114.502772 221.769844,114.00111 220.976506,113.674442 C220.183169,113.347773 219.13318,113.184442 217.826506,113.184442 L214.116506,113.184442 L214.116506,128.724442 Z M206.976506,106.464442 L218.456506,106.464442 C226.856548,106.464442 231.056506,111.34106 231.056506,121.094442 C231.056506,123.987789 230.601511,126.472765 229.691506,128.549442 C228.781502,130.626119 227.183185,132.294435 224.896506,133.554442 L232.596506,156.304442 L225.036506,156.304442 L218.386506,135.024442 L214.116506,135.024442 L214.116506,156.304442 L206.976506,156.304442 L206.976506,106.464442 Z M247.129836,106.464442 L257.699836,106.464442 C261.759856,106.464442 264.863158,107.596097 267.009836,109.859442 C269.156513,112.122786 270.229836,115.284421 270.229836,119.344442 L270.229836,142.654442 C270.229836,147.321132 269.09818,150.762764 266.834836,152.979442 C264.571491,155.196119 261.316524,156.304442 257.069836,156.304442 L247.129836,156.304442 L247.129836,106.464442 Z M254.269836,149.584442 L257.559836,149.584442 C259.566512,149.584442 260.989831,149.08278 261.829836,148.079442 C262.66984,147.076103 263.089836,145.501119 263.089836,143.354442 L263.089836,119.344442 C263.089836,117.384432 262.693173,115.86778 261.899836,114.794442 C261.106498,113.721103 259.659846,113.184442 257.559836,113.184442 L254.269836,113.184442 L254.269836,149.584442 Z M297.363165,120.814442 L297.223165,120.814442 L293.723165,138.874442 L300.863165,138.874442 L297.363165,120.814442 Z M294.353165,106.464442 L300.303165,106.464442 L311.433165,156.304442 L304.293165,156.304442 L302.193165,145.594442 L292.463165,145.594442 L290.363165,156.304442 L283.223165,156.304442 L294.353165,106.464442 Z M324.986494,106.464442 L331.846494,106.464442 L342.626494,136.494442 L342.766494,136.494442 L342.766494,106.464442 L349.906494,106.464442 L349.906494,156.304442 L343.186494,156.304442 L332.266494,126.344442 L332.126494,126.344442 L332.126494,156.304442 L324.986494,156.304442 L324.986494,106.464442 Z M390.033152,106.464442 L411.313152,106.464442 L411.313152,113.184442 L397.173152,113.184442 L397.173152,127.814442 L409.493152,127.814442 L409.493152,134.534442 L397.173152,134.534442 L397.173152,149.164442 L411.313152,149.164442 L411.313152,156.304442 L390.033152,156.304442 L390.033152,106.464442 Z M437.186482,120.814442 L437.046482,120.814442 L433.546482,138.874442 L440.686482,138.874442 L437.186482,120.814442 Z M434.176482,106.464442 L440.126482,106.464442 L451.256482,156.304442 L444.116482,156.304442 L442.016482,145.594442 L432.286482,145.594442 L430.186482,156.304442 L423.046482,156.304442 L434.176482,106.464442 Z M472.229811,128.724442 L476.289811,128.724442 C477.549817,128.724442 478.55314,128.549443 479.299811,128.199442 C480.046481,127.84944 480.618142,127.347778 481.014811,126.694442 C481.411479,126.041105 481.67981,125.236113 481.819811,124.279442 C481.959812,123.32277 482.029811,122.214448 482.029811,120.954442 C482.029811,119.694435 481.959812,118.586113 481.819811,117.629442 C481.67981,116.67277 481.388146,115.856112 480.944811,115.179442 C480.501475,114.502772 479.883148,114.00111 479.089811,113.674442 C478.296474,113.347773 477.246484,113.184442 475.939811,113.184442 L472.229811,113.184442 L472.229811,128.724442 Z M465.089811,106.464442 L476.569811,106.464442 C484.969853,106.464442 489.169811,111.34106 489.169811,121.094442 C489.169811,123.987789 488.714815,126.472765 487.804811,128.549442 C486.894806,130.626119 485.296489,132.294435 483.009811,133.554442 L490.709811,156.304442 L483.149811,156.304442 L476.499811,135.024442 L472.229811,135.024442 L472.229811,156.304442 L465.089811,156.304442 L465.089811,106.464442 Z M505.24314,106.464442 L512.38314,106.464442 L512.38314,149.164442 L526.52314,149.164442 L526.52314,156.304442 L505.24314,156.304442 L505.24314,106.464442 Z M541.476469,106.464442 L562.756469,106.464442 L562.756469,113.184442 L548.616469,113.184442 L548.616469,127.814442 L560.936469,127.814442 L560.936469,134.534442 L548.616469,134.534442 L548.616469,149.164442 L562.756469,149.164442 L562.756469,156.304442 L541.476469,156.304442 L541.476469,106.464442 Z" id="JORDAN-EARLE"></path>
        </g>
    </g>
</svg>